<?xml version="1.0" encoding="UTF-8"?>
<svg version="1.1" xmlns="http://www.w3.org/2000/svg" width="1217" height="446">
<path d="M0 0 C6.15957517 3.38356026 10.3898254 7.46154846 13.19921875 13.9765625 C14.08587288 19.93637338 14.0107136 25.83963926 13.9597168 31.85375977 C13.96621721 33.66475474 13.97528338 35.47574205 13.98670959 37.28671265 C14.00971549 42.18559038 13.99511659 47.08368531 13.97224021 51.98253751 C13.95327253 57.11840955 13.96449053 62.2542308 13.97114563 67.39012146 C13.97747853 76.01240418 13.95925487 84.63437461 13.92651367 93.2565918 C13.88901023 103.21506774 13.89080545 113.17295253 13.91355485 123.13145977 C13.93452514 132.72582064 13.92721851 142.31996369 13.9072361 151.91431999 C13.89926418 155.99113144 13.90122465 160.06775794 13.9112606 164.14456367 C13.92183448 168.94733237 13.90761974 173.7494144 13.87451744 178.55207443 C13.8663306 180.31122789 13.86657024 182.07044449 13.87599564 183.82959175 C13.95446113 200.28528521 13.95446113 200.28528521 8.19921875 206.9765625 C4.23846082 210.57100755 -0.42048506 212.8710665 -5.80078125 212.9765625 C-17.85280804 211.90317886 -25.9683375 207.01947483 -33.80078125 197.9765625 C-36.06172666 195.19947298 -38.26098775 192.37536889 -40.44824219 189.54003906 C-43.81944593 185.17852976 -47.31786968 180.95645598 -50.92578125 176.7890625 C-55.99096352 170.93540532 -60.92554751 164.98994823 -65.80078125 158.9765625 C-71.72881661 151.71247372 -77.68468254 144.47161129 -83.6472168 137.23583984 C-86.87192671 133.32164318 -90.09194491 129.40379503 -93.30078125 125.4765625 C-97.01943207 120.92619865 -100.75205663 116.38749536 -104.48828125 111.8515625 C-105.0800415 111.13291016 -105.67180176 110.41425781 -106.28149414 109.67382812 C-109.37300013 105.92030183 -112.46745481 102.16925708 -115.56640625 98.421875 C-116.18169189 97.67695801 -116.79697754 96.93204102 -117.4309082 96.16455078 C-118.59244757 94.75840248 -119.75496386 93.35306028 -120.91870117 91.94873047 C-123.83553325 88.41564162 -126.69598674 84.84683302 -129.50415039 81.2265625 C-130.12447647 80.42734375 -130.74480255 79.628125 -131.38392639 78.8046875 C-131.85148849 78.20140625 -132.3190506 77.598125 -132.80078125 76.9765625 C-132.80224781 77.58671424 -132.80371437 78.19686598 -132.80522537 78.82550716 C-132.84234316 93.69994656 -132.90142355 108.57417833 -132.98468399 123.44842434 C-133.02442418 130.64164522 -133.05684203 137.83475749 -133.07177734 145.02807617 C-133.08482006 151.30077938 -133.11185096 157.57324312 -133.15539432 163.84581143 C-133.17795099 167.16445839 -133.19160846 170.48274786 -133.1926651 173.80148125 C-133.19503581 177.51442058 -133.2221269 181.22643029 -133.25488281 184.93920898 C-133.24733727 186.57380569 -133.24733727 186.57380569 -133.23963928 188.24142456 C-133.34595697 196.05179199 -134.5364871 202.7938757 -140.30078125 208.4140625 C-146.7922432 212.47122622 -152.8115248 213.73123974 -160.42578125 212.3515625 C-166.45439212 210.76287098 -170.91518291 207.84077267 -174.17578125 202.4765625 C-176.65220964 197.14271674 -176.92679482 192.6461848 -176.93449402 186.79217529 C-176.93675958 186.0796316 -176.93902513 185.3670879 -176.94135934 184.63295197 C-176.94767724 182.25105295 -176.94687139 179.86921115 -176.94604492 177.48730469 C-176.94903783 175.77705309 -176.95244067 174.06680216 -176.95622253 172.35655212 C-176.96505434 167.71382638 -176.96740033 163.07111907 -176.96803832 158.42838573 C-176.96874941 155.52584581 -176.97088487 152.62331056 -176.97353554 149.72077179 C-176.98278698 139.5890727 -176.98687077 129.45738677 -176.98608398 119.32568359 C-176.98548358 109.89120405 -176.9960286 100.45678176 -177.01182765 91.02231669 C-177.02491872 82.91513321 -177.03026721 74.8079684 -177.02962857 66.70077443 C-177.029374 61.86202688 -177.03220252 57.02333019 -177.04280663 52.1845932 C-177.05251371 47.6308027 -177.05254891 43.0771114 -177.04528999 38.52331734 C-177.04424732 36.85648262 -177.04658811 35.18964163 -177.05265045 33.52281761 C-177.12712039 11.62030633 -177.12712039 11.62030633 -172.05078125 6.0390625 C-171.5815625 5.49378906 -171.11234375 4.94851562 -170.62890625 4.38671875 C-164.66035123 -0.21723074 -156.92238577 0.45098283 -149.80078125 0.9765625 C-139.02268494 2.68324901 -131.50951986 12.99074796 -125.1484375 21.0234375 C-122.59695469 24.23295664 -119.96118991 27.35749442 -117.30078125 30.4765625 C-113.17878072 35.32530497 -109.13084724 40.22819572 -105.11328125 45.1640625 C-102.53931733 48.29455916 -99.92509039 51.38828711 -97.30078125 54.4765625 C-93.17976491 59.32615631 -89.13086771 64.22817056 -85.11328125 69.1640625 C-82.07645355 72.8575016 -78.9811717 76.49954736 -75.88452148 80.14282227 C-73.00532805 83.53610359 -70.16873888 86.95924036 -67.36328125 90.4140625 C-63.90803974 94.66048632 -60.37380291 98.82952544 -56.80078125 102.9765625 C-52.53829201 107.92383193 -48.35770091 112.92559594 -44.24414062 117.99804688 C-41.53625403 121.29902773 -38.78576876 124.56100536 -36.0234375 127.81640625 C-35.26649597 128.70966614 -35.26649597 128.70966614 -34.4942627 129.62097168 C-33.26354171 131.07320786 -32.03222372 132.52493806 -30.80078125 133.9765625 C-30.79931469 133.3706427 -30.79784813 132.7647229 -30.79633713 132.14044189 C-30.75923279 117.37484398 -30.7001701 102.60944576 -30.61687851 87.84403992 C-30.57712427 80.70347737 -30.54471353 73.56302445 -30.52978516 66.42236328 C-30.51674976 60.19618034 -30.48973738 53.97023898 -30.44616818 47.74419212 C-30.42359514 44.44960931 -30.40995319 41.15538782 -30.4088974 37.86071777 C-30.40652947 34.17630887 -30.37946084 30.49284038 -30.34667969 26.80859375 C-30.35422523 25.18263023 -30.35422523 25.18263023 -30.36192322 23.52381897 C-30.2573197 15.91297592 -28.98150958 10.53580361 -23.765625 4.69921875 C-23.09660156 4.15136719 -22.42757812 3.60351562 -21.73828125 3.0390625 C-20.73087891 2.19021484 -20.73087891 2.19021484 -19.703125 1.32421875 C-14.22822733 -2.55430219 -6.08434844 -2.2232905 0 0 Z " fill="#ffffff" transform="translate(181.80078125,82.0234375)"/>
<path d="M0 0 C0.88517807 -0.00335861 1.77035614 -0.00671722 2.68235779 -0.01017761 C5.6126343 -0.01968414 8.54285355 -0.02163123 11.47314453 -0.02270508 C13.518972 -0.0259202 15.56479923 -0.02928446 17.61062622 -0.03279114 C21.90627575 -0.03878331 26.20190518 -0.04063118 30.49755859 -0.04003906 C35.96885433 -0.03993797 41.44001874 -0.0535349 46.91128349 -0.07081127 C51.14269588 -0.0820058 55.37407741 -0.08395592 59.60550308 -0.08342934 C61.62026544 -0.08460038 63.63502882 -0.08897226 65.64977646 -0.0967617 C90.37665528 -0.18333618 113.07548211 2.55639169 131.79345703 20.53979492 C144.69586667 34.33131292 151.39610929 52.29726181 151.23095703 71.14526367 C150.16261026 89.32623638 143.81071591 105.67219314 130.43798828 118.33276367 C124.61792764 123.11242409 118.06846181 127.00370742 111.23095703 130.14526367 C112.73102094 133.59305454 114.73504965 135.968869 117.29345703 138.70776367 C120.56114176 142.26823295 123.69574896 145.88459287 126.73095703 149.64526367 C129.63909083 153.24004017 132.61637035 156.72786995 135.73095703 160.14526367 C155.67360244 182.07520067 155.67360244 182.07520067 155.50048828 195.13745117 C155.02540243 200.43913386 153.23103016 203.37457519 149.28955078 206.86401367 C142.49890233 212.16647213 136.79237599 213.04316859 128.23095703 212.14526367 C116.4987403 208.59908517 110.77584094 198.67254587 104.09033203 189.17260742 C100.93158341 184.69845608 97.6765592 180.29732968 94.41845703 175.89526367 C89.67808494 169.48067657 84.96454746 163.048007 80.29345703 156.58276367 C79.78645264 155.88183594 79.27944824 155.1809082 78.75708008 154.45874023 C78.26506104 153.77650391 77.77304199 153.09426758 77.26611328 152.39135742 C76.56088783 151.43707603 76.56088783 151.43707603 75.84141541 150.46351624 C74.23095703 148.14526367 74.23095703 148.14526367 72.8041687 145.58512878 C69.75529889 140.3061746 69.75529889 140.3061746 64.7150116 137.22917175 C61.7118382 136.89286003 58.84925813 136.86321526 55.82861328 136.94995117 C54.21206093 136.93788132 54.21206093 136.93788132 52.56285095 136.92556763 C49.13786217 136.91062742 45.71795056 136.96443608 42.29345703 137.02026367 C39.96468034 137.02220634 37.63589527 137.01965135 35.30712891 137.01245117 C29.61394299 137.00463857 23.92335694 137.05318883 18.23095703 137.14526367 C18.23761887 137.83937851 18.2442807 138.53349335 18.25114441 139.24864197 C18.31151976 145.82391078 18.35706469 152.39910103 18.38639355 158.97458553 C18.40197929 162.35427211 18.42308559 165.73372761 18.45727539 169.11328125 C18.49383653 173.0081177 18.5107247 176.90263013 18.52392578 180.79760742 C18.53940964 181.99796127 18.55489349 183.19831512 18.57084656 184.43504333 C18.57235858 192.04545539 18.24722526 199.29292962 13.39892578 205.48510742 C6.77071256 210.83212756 1.61290204 212.64422438 -6.95263672 212.45776367 C-12.75780311 211.8136398 -17.7227811 209.66495953 -21.70654297 205.33276367 C-25.37074552 199.66990518 -26.0191458 194.24050498 -26.02301025 187.59301758 C-26.02769023 186.50114608 -26.02769023 186.50114608 -26.03246474 185.38721657 C-26.04039694 182.96533565 -26.03413992 180.54370864 -26.02783203 178.12182617 C-26.03054402 176.37847752 -26.03410612 174.63513001 -26.03845215 172.89178467 C-26.04755369 168.16871062 -26.04404111 163.44572416 -26.03769398 158.72264862 C-26.03262242 153.774488 -26.03732865 148.82633475 -26.04046631 143.87817383 C-26.04410258 135.56940366 -26.03931574 127.26066906 -26.02978516 118.9519043 C-26.01890127 109.35260733 -26.02242708 99.75339533 -26.03343797 90.15410042 C-26.04252048 81.9050785 -26.04379139 73.65608212 -26.03856063 65.40705681 C-26.03544624 60.48345421 -26.035017 55.55989152 -26.04163361 50.6362915 C-26.04742045 46.00696088 -26.04338564 41.37773956 -26.03184509 36.74842072 C-26.02920567 35.05172151 -26.02995131 33.35501307 -26.03437042 31.65831757 C-26.03985574 29.33792504 -26.03295581 27.01788029 -26.02301025 24.69750977 C-26.0222562 23.40042084 -26.02150215 22.10333191 -26.02072525 20.76693726 C-25.53278237 13.74550596 -23.76775548 9.14397618 -18.76904297 4.14526367 C-12.47336972 0.41925297 -7.19775032 -0.00391473 0 0 Z M18.23095703 38.14526367 C18.23095703 58.93526367 18.23095703 79.72526367 18.23095703 101.14526367 C29.5395286 101.23266784 29.5395286 101.23266784 40.84814453 101.29174805 C45.46739166 101.30961125 50.08645868 101.33063533 54.70556641 101.37158203 C58.43384894 101.40442124 62.16193804 101.42216783 65.89035416 101.4298954 C67.30557419 101.43539522 68.72078486 101.4461338 70.13592148 101.46245384 C81.03139362 101.58299247 90.67954162 101.04125068 99.41064453 93.95385742 C106.73945442 86.67222872 109.63735914 78.62829758 110.25439453 68.49291992 C110.19533141 60.0567376 106.91149164 52.37360665 101.23095703 46.14526367 C90.9781192 38.12503709 80.77626928 37.85423462 68.23095703 37.94995117 C66.78507687 37.95368748 65.33919416 37.95653153 63.89331055 37.95852661 C60.11217089 37.96611453 56.33118811 37.9857206 52.55010986 38.00793457 C48.00036358 38.03212197 43.45056445 38.04119707 38.90077209 38.05284119 C32.01072507 38.0721485 25.12102138 38.11050438 18.23095703 38.14526367 Z " fill="#ffffff" transform="translate(1058.76904296875,80.854736328125)"/>
<path d="M0 0 C1.16557938 -0.00540298 2.33115875 -0.01080597 3.53205872 -0.01637268 C7.35822488 -0.02880864 11.18363104 -0.01240194 15.00976562 0.00561523 C17.68437715 0.00546013 20.35896205 0.00402254 23.03356934 0.00120544 C28.62842557 -0.00148784 34.22306619 0.01190247 39.81787109 0.03515625 C46.26293924 0.06176056 52.70764719 0.06350985 59.15275145 0.05176789 C65.38274915 0.04094452 71.61261806 0.04721273 77.84260559 0.06132317 C80.48028691 0.06582489 83.11797878 0.06618571 85.75566101 0.06225777 C89.44800187 0.05933279 93.13976374 0.07591517 96.83203125 0.09765625 C97.9118074 0.0931546 98.99158356 0.08865295 100.1040802 0.08401489 C107.54213918 0.15642563 115.22926048 0.73073437 121.35351562 5.33374023 C126.79241357 12.22754338 128.49167896 17.05815108 127.45117188 25.88452148 C126.1674438 32.16260768 121.98804629 35.92145205 116.91601562 39.50170898 C111.30108906 41.53901961 106.28315574 41.77776447 100.40063477 41.72875977 C99.00921768 41.72919785 99.00921768 41.72919785 97.58969116 41.72964478 C94.54342076 41.72825865 91.49739921 41.71273129 88.45117188 41.69702148 C86.33125441 41.6932888 84.21133522 41.69044304 82.09141541 41.68844604 C76.52655224 41.68082969 70.96179437 41.66119835 65.39697266 41.63903809 C58.71219814 41.61492859 52.02738831 41.60578917 45.3425827 41.59413147 C35.20032057 41.57477282 25.05828922 41.53643619 14.91601562 41.50170898 C14.91601562 56.02170898 14.91601562 70.54170898 14.91601562 85.50170898 C20.80316406 85.4669043 26.6903125 85.43209961 32.75585938 85.39624023 C36.49740582 85.38090196 40.23891322 85.3664594 43.98046875 85.35522461 C49.9122732 85.33732841 55.84393801 85.31621349 61.77563477 85.27539062 C66.56077665 85.24266663 71.34576867 85.22482854 76.13101387 85.21707726 C77.95176106 85.21155709 79.77250055 85.20077776 81.59318352 85.18451881 C84.15401468 85.16257084 86.7142356 85.15974924 89.27514648 85.16113281 C90.0189003 85.15034698 90.76265411 85.13956116 91.52894592 85.12844849 C97.86750077 85.16522692 104.1794572 86.3590614 109.25585938 90.33374023 C114.24291583 96.51573931 116.61938116 101.34266875 115.91601562 109.50170898 C114.30338968 115.66970893 111.74420288 120.5219779 106.41601562 124.25170898 C101.56337449 126.67802955 97.00462576 126.63985966 91.65917969 126.61523438 C90.41472328 126.61545341 90.41472328 126.61545341 89.14512634 126.61567688 C86.40727103 126.61498111 83.66948403 126.60720437 80.93164062 126.59936523 C79.03163693 126.59749986 77.13163276 126.59607652 75.23162842 126.59507751 C70.23393422 126.59126171 65.23626913 126.5814394 60.23858643 126.57037354 C54.24052024 126.55833951 48.24244431 126.55375271 42.24436951 126.54792023 C33.13489797 126.53822717 24.02549031 126.51906404 14.91601562 126.50170898 C14.91601562 141.35170898 14.91601562 156.20170898 14.91601562 171.50170898 C22.2353125 171.44370117 29.55460937 171.38569336 37.09570312 171.32592773 C41.74416291 171.30036746 46.39253554 171.27629691 51.04101562 171.25756836 C58.4126189 171.22772728 65.78391041 171.19249853 73.15527344 171.12451172 C79.10104912 171.07001902 85.04649028 171.04025173 90.99249649 171.02732277 C93.25622953 171.01811394 95.51994512 171.00013128 97.783535 170.9730587 C100.96464761 170.93654 104.1443937 170.9317733 107.32568359 170.93408203 C108.71644356 170.90711746 108.71644356 170.90711746 110.13529968 170.87960815 C116.89651121 170.93239296 122.33165778 172.60151403 127.91601562 176.50170898 C132.37760027 181.88696548 134.29541234 187.1179335 134.19335938 194.09155273 C133.56973751 199.51091457 131.03577833 203.79122102 126.97851562 207.37670898 C118.73035516 213.09992237 109.84268117 212.65099189 100.15673828 212.64697266 C98.4066169 212.65201057 98.4066169 212.65201057 96.62113953 212.65715027 C92.77410815 212.6666291 88.92712044 212.66860177 85.08007812 212.66967773 C83.07686585 212.67207928 81.07365356 212.67448269 79.0704416 212.67713815 C72.77547348 212.68526331 66.48051964 212.68772413 60.18554688 212.68701172 C53.71048867 212.68641117 47.23551383 212.69696298 40.76047671 212.71275538 C35.18401629 212.72586721 29.60758301 212.7311941 24.03110731 212.73055631 C20.70814939 212.73030242 17.38528198 212.73402521 14.06233597 212.74373436 C10.35284806 212.75355911 6.64357356 212.75064633 2.93408203 212.74462891 C1.30195518 212.75305817 1.30195518 212.75305817 -0.36314392 212.76165771 C-16.56947452 212.6950374 -16.56947452 212.6950374 -22.45898438 207.43920898 C-23.39871094 206.64836914 -23.39871094 206.64836914 -24.35742188 205.84155273 C-30.50014623 197.51691045 -29.51093942 187.1715087 -29.47216797 177.35888672 C-29.47623805 175.6267158 -29.48158238 173.89454748 -29.48809814 172.16238403 C-29.50172459 167.47857963 -29.49649272 162.79497441 -29.48696089 158.11116672 C-29.47934125 153.19951786 -29.48641618 148.28788552 -29.49111938 143.37623596 C-29.49656972 135.13067578 -29.48940375 126.88519635 -29.47509766 118.63964844 C-29.45876713 109.11754593 -29.4640655 99.5956361 -29.48057687 90.07353824 C-29.49420586 81.88474776 -29.49610465 73.69601516 -29.48826087 65.50721699 C-29.48359282 60.62215935 -29.48293569 55.73719219 -29.49287033 50.85214043 C-29.50155848 46.25966401 -29.49548437 41.66743527 -29.47818756 37.0749855 C-29.47423282 35.39321999 -29.47533937 33.71143351 -29.48197556 32.02967644 C-29.5157104 22.60956298 -29.29421702 15.15171844 -24.52148438 6.75170898 C-17.62996976 0.39031087 -8.94905742 -0.08012698 0 0 Z " fill="#ffffff" transform="translate(244.083984375,82.498291015625)"/>
<path d="M0 0 C6.05106982 5.64416491 10.34826154 12.74049543 11.19921875 21.03125 C11.46317323 28.72653841 9.97337579 33.83321346 5.92578125 40.3671875 C5.26578125 40.3671875 4.60578125 40.3671875 3.92578125 40.3671875 C3.69375 40.95628906 3.46171875 41.54539063 3.22265625 42.15234375 C-1.59403083 50.37843284 -14.43999622 53.89778083 -23.07421875 56.3671875 C-30.30751652 58.13287309 -37.65440861 59.41852868 -44.97363281 60.77124023 C-68.52726899 65.16410772 -91.87887826 72.85880345 -106.19921875 93.41796875 C-109.72120087 99.19255194 -112.23257868 104.86728138 -114.07421875 111.3671875 C-113.74421875 111.6971875 -113.41421875 112.0271875 -113.07421875 112.3671875 C-112.38199219 111.79871094 -111.68976562 111.23023438 -110.9765625 110.64453125 C-88.81281372 93.15298248 -60.84605414 89.02215292 -33.38671875 86.3671875 C-17.10972779 84.72417524 -2.31780175 78.58760662 8.92578125 66.3671875 C13.67438546 60.43143224 17.86260311 54.19711489 21.7578125 47.671875 C22.23428223 46.87442871 22.71075195 46.07698242 23.20166016 45.25537109 C24.11726194 43.70635404 25.02013164 42.14971274 25.90771484 40.58447266 C29.17177305 35.00904778 33.04631342 30.30692141 38.92578125 27.3671875 C46.12495137 26.3017712 51.14240412 28.13691035 56.92578125 32.3671875 C62.08974401 37.3808537 65.78310544 42.99574843 69.05078125 49.3671875 C69.47746094 50.19025391 69.90414062 51.01332031 70.34375 51.86132812 C75.82556912 62.74952849 79.38566329 74.25159285 80.92578125 86.3671875 C81.09078125 87.5015625 81.25578125 88.6359375 81.42578125 89.8046875 C80.24122882 98.24462359 75.48560538 105.91538064 69.24609375 111.62109375 C50.03888391 126.07500419 24.56388256 124.71466959 2.0078125 121.5625 C-10.98672856 119.52258224 -23.78572068 116.26457505 -36.56103516 113.16748047 C-55.3559389 108.88605625 -75.86303294 110.34598358 -93.07421875 119.3671875 C-104.81164256 126.8681349 -111.81683581 137.06037911 -116.38671875 150.1171875 C-117.77963935 156.70190306 -117.7650305 163.6626843 -118.07421875 170.3671875 C-130.06162911 165.28556789 -137.05041844 147.15608568 -141.75 135.65625 C-145.41651453 124.74975811 -146.57301172 113.7813236 -146.46533203 102.33276367 C-146.44919137 100.30124136 -146.46532773 98.27169884 -146.484375 96.24023438 C-146.52468581 71.3759629 -136.79703743 46.79958802 -120.07421875 28.3671875 C-119.41421875 28.3671875 -118.75421875 28.3671875 -118.07421875 28.3671875 C-117.8421875 27.80386719 -117.61015625 27.24054688 -117.37109375 26.66015625 C-107.68181072 9.52880343 -81.11977849 -0.83318907 -63.41210938 -5.99853516 C-42.84420225 -11.57867537 -17.64145574 -13.88724765 0 0 Z " fill="#F0941D" transform="translate(922.07421875,87.6328125)"/>
<path d="M0 0 C0.94166016 0.7115625 0.94166016 0.7115625 1.90234375 1.4375 C6.35636596 4.92230955 8.8546972 8.48446283 10 14 C10.71242192 20.8672801 10.06483867 26.29866784 6 32 C1.12843742 36.74665072 -3.58054336 38.29437776 -10.3125 38.375 C-18.75081649 38.20414545 -23.08590855 35.88371263 -29.125 30.1875 C-43.66271604 16.73130955 -61.13774031 16.15547859 -79.89697266 16.80908203 C-97.00317725 17.86156449 -113.96914334 25.91187231 -125.40234375 38.68359375 C-138.26212117 54.7957608 -143.02366395 74.70433714 -140.77294922 95.05273438 C-138.31908712 113.28142427 -131.18459284 129.87687474 -116.9296875 141.93359375 C-107.9769741 148.24824093 -97.77027111 152.90481864 -87 155 C-86.1028125 155.18046875 -85.205625 155.3609375 -84.28125 155.546875 C-61.47486143 158.69632866 -42.22239694 153.13379293 -23.875 139.625 C-23.04742188 138.97789062 -22.21984375 138.33078125 -21.3671875 137.6640625 C-15.26910999 133.37729514 -9.24628311 133.2555834 -2 134 C4.21705201 135.72753359 8.45147783 139.7079133 12 145 C13.90119676 150.70359028 14.15003508 157.62282382 12.19921875 163.3515625 C4.25492831 177.05614601 -13.34535267 185.6347859 -28 190 C-39.56284162 192.93785504 -51.0698157 194.68676457 -63 195 C-64.02609375 195.03996094 -65.0521875 195.07992187 -66.109375 195.12109375 C-96.86984192 195.78470788 -128.70541044 188.31674454 -151.49951172 166.64282227 C-173.4977459 144.83947453 -182.15501787 115.7697487 -182.375 85.4375 C-182.12926167 55.0470153 -172.55448589 26.88901335 -151.0859375 4.9609375 C-136.51538722 -9.30042338 -117.73958831 -17.73950317 -98 -22 C-96.97648437 -22.22558594 -95.95296875 -22.45117188 -94.8984375 -22.68359375 C-60.72413822 -28.83157563 -27.26397291 -21.40521731 0 0 Z " fill="#ffffff" transform="translate(562,102)"/>
<path d="M0 0 C1.50394866 -0.00271435 3.00789598 -0.00627777 4.51184082 -0.01062012 C8.5737996 -0.01969354 12.63565614 -0.0162208 16.69761658 -0.00986195 C20.96149966 -0.00477571 25.22537436 -0.00950066 29.48925781 -0.01263428 C36.64780234 -0.0162663 43.80630551 -0.0114949 50.96484375 -0.00195312 C59.22471557 0.00892995 67.48448863 0.00540383 75.74435806 -0.00560594 C82.85375942 -0.01470061 89.96313117 -0.01595344 97.07253647 -0.0107286 C101.31094734 -0.00762087 105.54931189 -0.00716649 109.78771973 -0.01380157 C113.77360119 -0.0196062 117.75935611 -0.01552147 121.745224 -0.00401306 C123.20242605 -0.00138308 124.65963887 -0.00210294 126.11683655 -0.00653839 C146.77382056 -0.06358677 146.77382056 -0.06358677 154.31640625 7.20800781 C158.13153812 11.89874372 159.30792348 16.91019684 158.921875 22.88378906 C158.00251965 28.54820426 155.74938119 32.58429601 151.546875 36.57128906 C147.01746088 39.55407397 143.4144416 40.50902489 138.00073242 40.48583984 C136.22946236 40.48561325 136.22946236 40.48561325 134.42240906 40.48538208 C132.52528923 40.46989822 132.52528923 40.46989822 130.58984375 40.45410156 C128.63610588 40.44985672 128.63610588 40.44985672 126.64289856 40.44552612 C123.19215116 40.43791603 119.74157402 40.41829041 116.29089355 40.39611816 C112.764916 40.37560294 109.23891075 40.36651231 105.71289062 40.35644531 C98.80331579 40.33504179 91.89385359 40.3009378 84.984375 40.25878906 C84.98714038 41.06055069 84.98990576 41.86231232 84.99275494 42.68836975 C85.05905148 62.21057977 85.10867346 81.73276728 85.13981152 101.25506592 C85.15527047 110.69596402 85.17634141 120.1367869 85.21069336 129.57763672 C85.24062546 137.80772738 85.25995707 146.03776356 85.26664048 154.26790714 C85.27054628 158.62440296 85.2797052 162.98074293 85.30156517 167.33718872 C85.32199056 171.44115062 85.32819661 175.54489308 85.32369804 179.64890099 C85.32452054 181.15168133 85.33045013 182.65446933 85.34199142 184.15720558 C85.46434639 200.91638998 85.46434639 200.91638998 80.1875 207.50097656 C74.2060648 212.50145639 69.0322101 214.75652187 61.02734375 214.50878906 C54.52271104 213.71281106 49.51426242 210.8940227 44.984375 206.25878906 C42.54842776 201.4592057 41.61089468 197.74299041 41.62361145 192.38075256 C41.62104818 191.72548676 41.6184849 191.07022097 41.61584395 190.39509863 C41.61093813 188.2192775 41.62734464 186.04416441 41.64379883 183.8684082 C41.6446458 182.30089331 41.64416859 180.73337724 41.64247131 179.16586304 C41.64161266 174.9245722 41.65921721 170.68353731 41.68019319 166.4423058 C41.69898178 162.00471761 41.70071215 157.56712317 41.70426941 153.12950134 C41.71358347 144.7325522 41.73818859 136.33572061 41.76831788 127.93882316 C41.80188179 118.37658608 41.8183529 108.81434331 41.83340418 99.25206196 C41.86473872 79.58757212 41.91748678 59.92318801 41.984375 40.25878906 C40.84591125 40.27211273 40.84591125 40.27211273 39.68444824 40.28570557 C32.50549788 40.36610401 25.32676812 40.42688075 18.14748383 40.46603775 C14.45717545 40.48684616 10.76724142 40.51503826 7.07714844 40.56054688 C3.51095439 40.60424849 -0.05488131 40.62797682 -3.62132263 40.63829803 C-5.63312612 40.64920401 -7.64478696 40.68039097 -9.65637207 40.7119751 C-16.93389789 40.71374728 -21.8734892 40.28530031 -28.015625 36.25878906 C-33.67998367 30.29630625 -34.47267238 25.52555843 -34.328125 17.45800781 C-33.75332332 11.57347559 -31.40569064 8.71350892 -27.328125 4.44628906 C-19.20393752 -0.9187404 -9.3756851 -0.02853791 0 0 Z " fill="#ffffff" transform="translate(620.015625,81.7412109375)"/>
<path d="M0 0 C6.05106982 5.64416491 10.34826154 12.74049543 11.19921875 21.03125 C11.46317323 28.72653841 9.97337579 33.83321346 5.92578125 40.3671875 C5.26578125 40.3671875 4.60578125 40.3671875 3.92578125 40.3671875 C3.69375 40.95628906 3.46171875 41.54539063 3.22265625 42.15234375 C-1.60337161 50.39438531 -14.4367529 53.86471962 -23.07421875 56.3671875 C-29.51954019 57.99224554 -36.05089533 59.22698999 -42.57421875 60.4921875 C-44.27103099 60.82843117 -45.96764695 61.16566689 -47.6640625 61.50390625 C-50.14671765 61.99845427 -52.62947471 62.49239445 -55.11289978 62.98306274 C-68.73112159 65.3727954 -68.73112159 65.3727954 -81.85546875 69.5078125 C-83.64013916 70.19905808 -85.46278152 70.79184505 -87.29296875 71.3515625 C-97.59506783 74.51145003 -106.74870485 78.99085884 -116.07421875 84.3671875 C-117.42193359 85.140625 -117.42193359 85.140625 -118.796875 85.9296875 C-129.36349087 92.4895619 -136.25673087 100.96971618 -141.07421875 112.3671875 C-142.39421875 112.3671875 -143.71421875 112.3671875 -145.07421875 112.3671875 C-147.46667896 81.47881723 -141.6641443 55.24911662 -122.17578125 30.68359375 C-121.48226562 29.91917969 -120.78875 29.15476563 -120.07421875 28.3671875 C-119.41421875 28.3671875 -118.75421875 28.3671875 -118.07421875 28.3671875 C-117.8421875 27.80386719 -117.61015625 27.24054688 -117.37109375 26.66015625 C-107.68181072 9.52880343 -81.11977849 -0.83318907 -63.41210938 -5.99853516 C-42.84420225 -11.57867537 -17.64145574 -13.88724765 0 0 Z " fill="#F2A01D" transform="translate(922.07421875,87.6328125)"/>
<path d="M0 0 C1.82988988 3.65977976 0.97960728 7.19711429 0 11 C-5.47306411 24.80629322 -13.88474988 36.24454417 -24 47 C-24.51691406 47.59296875 -25.03382813 48.1859375 -25.56640625 48.796875 C-39.44057512 64.01136828 -60.3414422 73.28432455 -80 78 C-80.71575195 78.18546387 -81.43150391 78.37092773 -82.16894531 78.56201172 C-90.03893283 80.40381882 -97.96158665 80.39738199 -106 80.375 C-107.09899124 80.37418427 -107.09899124 80.37418427 -108.22018433 80.37335205 C-119.5756569 80.33458294 -130.16498335 79.58368176 -141 76 C-141.70382812 75.78037598 -142.40765625 75.56075195 -143.1328125 75.33447266 C-156.78494046 71.01313377 -167.36480899 64.27079812 -174.9375 51.8125 C-177.81553343 41.48543886 -176.27881521 31.19331763 -171.3125 21.8125 C-164.88249464 13.99222321 -158.71161504 9.98493223 -148.53222656 8.68481445 C-145.99185746 8.52508913 -143.48280128 8.48229315 -140.9375 8.5 C-139.99994873 8.50281982 -139.06239746 8.50563965 -138.09643555 8.50854492 C-127.44014559 8.7446881 -117.26115544 11.06987769 -106.89355469 13.3671875 C-78.05593745 19.67389555 -49.86525795 18.6126804 -22.64453125 6.67578125 C-21.7110083 6.26666504 -20.77748535 5.85754883 -19.81567383 5.43603516 C-17.97700651 4.62072737 -16.1444156 3.79153607 -14.3190918 2.94677734 C-9.25735837 0.6734948 -5.55722618 -0.5058888 0 0 Z " fill="#EC7823" transform="translate(996,216)"/>
<path d="M0 0 C1.08935547 3.77197266 1.08935547 3.77197266 0.28515625 5.82421875 C-11.35965191 23.57045994 -27.04091239 32.24849014 -47.4519043 36.66381836 C-54.52245339 38.0541741 -61.6567879 38.92747613 -68.8125 39.75 C-69.92077148 39.87785889 -71.02904297 40.00571777 -72.17089844 40.13745117 C-79.80314299 40.94320299 -87.32850092 41.1416422 -95 41 C-95 40.01 -95 39.02 -95 38 C-77.87289047 23.66693165 -54.20014205 17.97106779 -33 13 C-40.69532887 13.49402343 -47.96604481 14.66868507 -55.4375 16.5625 C-56.47229492 16.82426025 -57.50708984 17.08602051 -58.57324219 17.35571289 C-73.27464287 21.22693165 -87.22388279 26.69033027 -100 35 C-99.24682421 28.03312395 -94.04608704 23.46415537 -89 19 C-84.84414772 15.96125721 -80.53914766 13.42161593 -76 11 C-75.11699219 10.51789062 -74.23398437 10.03578125 -73.32421875 9.5390625 C-51.00625061 -1.63685478 -24.22951935 -0.32576663 0 0 Z " fill="#0D8946" transform="translate(1014,35)"/>
<path d="M0 0 C8.60709249 4.36975465 15.09333397 12.20594615 18.66015625 21.16015625 C18.33015625 21.82015625 18.00015625 22.48015625 17.66015625 23.16015625 C17.00015625 22.83015625 16.34015625 22.50015625 15.66015625 22.16015625 C15.7065625 22.87300781 15.75296875 23.58585937 15.80078125 24.3203125 C16.17029183 34.12553962 16.17029183 34.12553962 13.34765625 38.390625 C9.3381706 42.59501621 4.41821694 45.86093492 -0.33984375 49.16015625 C-0.33984375 48.17015625 -0.33984375 47.18015625 -0.33984375 46.16015625 C0.32015625 46.16015625 0.98015625 46.16015625 1.66015625 46.16015625 C1.66015625 45.50015625 1.66015625 44.84015625 1.66015625 44.16015625 C2.65015625 44.16015625 3.64015625 44.16015625 4.66015625 44.16015625 C4.66015625 43.17015625 4.66015625 42.18015625 4.66015625 41.16015625 C3.66266357 41.64826782 3.66266357 41.64826782 2.64501953 42.14624023 C-3.94991529 45.27286039 -10.37454912 47.52722902 -17.46484375 49.22265625 C-18.48964844 49.47233154 -19.51445313 49.72200684 -20.5703125 49.97924805 C-37.25562121 53.91869404 -54.18866229 56.64894369 -71.33984375 57.16015625 C-69.00429479 55.9722972 -66.65463761 54.84504871 -64.2734375 53.75 C-46.02743222 45.12646901 -35.68639387 32.29174827 -25.8918457 15.14038086 C-19.9747984 4.88173393 -13.08404855 -4.69627786 0 0 Z " fill="#E27025" transform="translate(972.33984375,115.83984375)"/>
<path d="M0 0 C2.93846838 1.56146224 4.003254 2.93953255 5.77807617 5.73168945 C6.33946289 6.6050293 6.90084961 7.47836914 7.47924805 8.37817383 C8.33292969 9.75005859 8.33292969 9.75005859 9.20385742 11.1496582 C10.07494141 12.50414062 10.07494141 12.50414062 10.96362305 13.88598633 C13.55207301 17.95868043 15.82428968 21.80233614 17.51635742 26.3371582 C18.17635742 26.3371582 18.83635742 26.3371582 19.51635742 26.3371582 C19.78657715 25.60577637 20.05679688 24.87439453 20.33520508 24.12084961 C22.2540935 19.59849207 25.11592184 15.7469324 27.89135742 11.7121582 C28.46885742 10.85364258 29.04635742 9.99512695 29.64135742 9.1105957 C30.2059668 8.2855957 30.77057617 7.4605957 31.35229492 6.6105957 C31.86324707 5.86213379 32.37419922 5.11367188 32.90063477 4.3425293 C34.61333715 2.2167908 36.17700731 0.74540639 38.51635742 -0.6628418 C40.90899149 0.00487004 42.73733127 0.55813205 44.51635742 2.3371582 C44.61985307 3.82507195 44.65486454 5.31783262 44.66162109 6.80932617 C44.66800095 7.76056366 44.6743808 8.71180115 44.68095398 9.69186401 C44.6820668 10.72723297 44.68317963 11.76260193 44.68432617 12.8293457 C44.68931877 14.41466599 44.68931877 14.41466599 44.69441223 16.03201294 C44.69948655 18.27320926 44.7018204 20.51441317 44.70166016 22.75561523 C44.70384364 26.19047483 44.7219859 29.62501189 44.7409668 33.05981445 C44.74390117 35.23299043 44.74588567 37.40616795 44.74682617 39.5793457 C44.75401169 40.6106662 44.7611972 41.64198669 44.76860046 42.70455933 C44.76552383 43.66210114 44.7624472 44.61964294 44.75927734 45.60620117 C44.76070236 46.44923798 44.76212738 47.29227478 44.76359558 48.16085815 C44.51635742 50.3371582 44.51635742 50.3371582 42.51635742 53.3371582 C38.95385742 53.5871582 38.95385742 53.5871582 35.51635742 53.3371582 C33.60416157 51.42496236 34.27200445 48.00070317 34.19995117 45.45825195 C34.17917007 44.77158951 34.15838898 44.08492706 34.13697815 43.37745667 C34.07141599 41.17662886 34.01256727 38.97567845 33.95385742 36.7746582 C33.9106785 35.28571306 33.86706442 33.79678047 33.82299805 32.30786133 C33.71572812 28.65109267 33.6144797 24.99418502 33.51635742 21.3371582 C33.21979248 21.84690186 32.92322754 22.35664551 32.61767578 22.88183594 C31.25368794 25.19457011 29.85460765 27.4840196 28.45385742 29.7746582 C27.98786133 30.57709961 27.52186523 31.37954102 27.04174805 32.20629883 C24.58559584 36.1662177 23.37171938 38.01881961 18.89526367 39.68481445 C15.51635742 39.3371582 15.51635742 39.3371582 13.34448242 37.32543945 C12.74120117 36.33930664 12.13791992 35.35317383 11.51635742 34.3371582 C10.80995117 33.23758789 10.10354492 32.13801758 9.37573242 31.00512695 C8.66850484 29.84746706 7.96612344 28.68684356 7.26635742 27.5246582 C6.60410156 26.43193604 5.9418457 25.33921387 5.25952148 24.21337891 C4.68427734 23.26422607 4.1090332 22.31507324 3.51635742 21.3371582 C3.49653809 22.23547363 3.47671875 23.13378906 3.45629883 24.05932617 C3.37826481 27.38805899 3.29157628 30.71633076 3.19897461 34.04467773 C3.16066069 35.4859956 3.12581199 36.92740989 3.09448242 38.36889648 C3.04888296 40.43939706 2.99088299 42.50923253 2.93041992 44.5793457 C2.89899902 45.82570801 2.86757813 47.07207031 2.83520508 48.35620117 C2.51635742 51.3371582 2.51635742 51.3371582 0.51635742 53.3371582 C-2.48364258 53.6496582 -2.48364258 53.6496582 -5.48364258 53.3371582 C-7.60291547 50.15824887 -7.73536081 49.37022832 -7.74243164 45.72973633 C-7.74873596 44.79867065 -7.75504028 43.86760498 -7.76153564 42.9083252 C-7.75748718 41.90515259 -7.75343872 40.90197998 -7.74926758 39.8684082 C-7.75118103 38.83655396 -7.75309448 37.80469971 -7.75506592 36.74157715 C-7.75642725 34.55940507 -7.75273444 32.37722489 -7.74438477 30.19506836 C-7.73368468 26.85031993 -7.74428199 23.50610863 -7.75708008 20.16137695 C-7.75575847 18.04288618 -7.75319606 15.92439574 -7.74926758 13.8059082 C-7.75534027 12.30114929 -7.75534027 12.30114929 -7.76153564 10.76599121 C-7.75523132 9.83492554 -7.748927 8.90385986 -7.74243164 7.94458008 C-7.74084045 7.12534058 -7.73924927 6.30610107 -7.73760986 5.46203613 C-7.48364258 3.3371582 -7.48364258 3.3371582 -5.48364258 0.3371582 C-2.48364258 -0.6628418 -2.48364258 -0.6628418 0 0 Z " fill="#ffffff" transform="translate(1001.483642578125,368.662841796875)"/>
<path d="M0 0 C4.0150659 -0.61038654 8.04398665 -0.51479127 12.1015625 -0.50097656 C14.09655496 -0.50001373 16.09141419 -0.54266382 18.0859375 -0.5859375 C25.67982798 -0.60130975 31.21719898 -0.20656157 37 5 C43.69434578 11.87527405 44.98813302 19.70815412 45 29 C44.34755197 37.2445706 41.5291697 43.72906223 35.4375 49.375 C29.12940981 53.58039346 23.92699975 53.34018348 16.41796875 53.31567383 C14.37446467 53.31249917 12.33238929 53.33604429 10.2890625 53.36132812 C9.00515625 53.36197266 7.72125 53.36261719 6.3984375 53.36328125 C5.21942871 53.36626221 4.04041992 53.36924316 2.82568359 53.37231445 C1.42697021 53.1880188 1.42697021 53.1880188 0 53 C-2.11927289 49.82109067 -2.25171823 49.03307011 -2.25878906 45.39257812 C-2.26509338 44.46151245 -2.27139771 43.53044678 -2.27789307 42.57116699 C-2.2738446 41.56799438 -2.26979614 40.56482178 -2.265625 39.53125 C-2.26753845 38.49939575 -2.2694519 37.4675415 -2.27142334 36.40441895 C-2.27278467 34.22224687 -2.26909187 32.04006668 -2.26074219 29.85791016 C-2.25004211 26.51316173 -2.26063941 23.16895043 -2.2734375 19.82421875 C-2.2721159 17.70572798 -2.26955349 15.58723754 -2.265625 13.46875 C-2.27169769 11.96399109 -2.27169769 11.96399109 -2.27789307 10.42883301 C-2.27158875 9.49776733 -2.26528442 8.56670166 -2.25878906 7.60742188 C-2.25719788 6.78818237 -2.25560669 5.96894287 -2.25396729 5.12487793 C-2 3 -2 3 0 0 Z M9 9 C9 20.55 9 32.1 9 44 C22.828093 45.28623939 22.828093 45.28623939 29 41 C33.71992576 34.8378747 34.6993784 29.60574013 34 22 C32.81498033 17.04208683 31.10388551 13.20616056 27 10 C21.29912287 8.09970762 15.00925213 9 9 9 Z " fill="#ffffff" transform="translate(1170,369)"/>
<path d="M0 0 C4.0150659 -0.61038654 8.04398665 -0.51479127 12.1015625 -0.50097656 C14.09655496 -0.50001373 16.09141419 -0.54266382 18.0859375 -0.5859375 C25.67982798 -0.60130975 31.21719898 -0.20656157 37 5 C43.69434578 11.87527405 44.98813302 19.70815412 45 29 C44.34755197 37.2445706 41.5291697 43.72906223 35.4375 49.375 C29.12940981 53.58039346 23.92699975 53.34018348 16.41796875 53.31567383 C14.37446467 53.31249917 12.33238929 53.33604429 10.2890625 53.36132812 C9.00515625 53.36197266 7.72125 53.36261719 6.3984375 53.36328125 C5.21942871 53.36626221 4.04041992 53.36924316 2.82568359 53.37231445 C1.42697021 53.1880188 1.42697021 53.1880188 0 53 C-2.11927289 49.82109067 -2.25171823 49.03307011 -2.25878906 45.39257812 C-2.26509338 44.46151245 -2.27139771 43.53044678 -2.27789307 42.57116699 C-2.2738446 41.56799438 -2.26979614 40.56482178 -2.265625 39.53125 C-2.26753845 38.49939575 -2.2694519 37.4675415 -2.27142334 36.40441895 C-2.27278467 34.22224687 -2.26909187 32.04006668 -2.26074219 29.85791016 C-2.25004211 26.51316173 -2.26063941 23.16895043 -2.2734375 19.82421875 C-2.2721159 17.70572798 -2.26955349 15.58723754 -2.265625 13.46875 C-2.27169769 11.96399109 -2.27169769 11.96399109 -2.27789307 10.42883301 C-2.27158875 9.49776733 -2.26528442 8.56670166 -2.25878906 7.60742188 C-2.25719788 6.78818237 -2.25560669 5.96894287 -2.25396729 5.12487793 C-2 3 -2 3 0 0 Z M9 9 C9 20.55 9 32.1 9 44 C22.828093 45.28623939 22.828093 45.28623939 29 41 C33.71992576 34.8378747 34.6993784 29.60574013 34 22 C32.81498033 17.04208683 31.10388551 13.20616056 27 10 C21.29912287 8.09970762 15.00925213 9 9 9 Z " fill="#ffffff" transform="translate(488,369)"/>
<path d="M0 0 C6.48018431 3.38926767 11.56569551 9.11345748 14.1875 15.9375 C16.37874091 24.10485247 16.18726897 33.0058895 12.1875 40.5625 C7.8024083 46.93426471 2.85526906 51.77492194 -4.8125 53.5625 C-13.41960935 54.68704695 -20.77476648 53.8963612 -27.8125 48.5625 C-34.38425131 41.91745778 -37.08999529 35.6397035 -37.1875 26.25 C-37.06569134 17.96701141 -35.12894997 13.10530583 -30.6875 6.3125 C-22.18166779 -1.82351342 -11.17290558 -4.16094415 0 0 Z M-24.125 15.1875 C-26.65028945 20.23807889 -27.52028769 25.2266154 -26.3359375 30.80859375 C-24.69930491 35.56561925 -22.3952141 40.00960228 -17.9609375 42.67578125 C-13.44677531 44.5388991 -8.53202257 44.26594105 -4.0625 42.4375 C-0.36526393 39.35646994 2.638279 36.21016299 4.1875 31.5625 C4.78622675 24.22809731 4.63733056 18.71187953 -0.21875 12.87109375 C-3.53091262 9.5042492 -6.11785053 8.13810269 -10.875 7.9375 C-16.92546931 8.34147671 -20.15593778 10.68207802 -24.125 15.1875 Z " fill="#ffffff" transform="translate(462.8125,369.4375)"/>
<path d="M0 0 C6.48018431 3.38926767 11.56569551 9.11345748 14.1875 15.9375 C16.37874091 24.10485247 16.18726897 33.0058895 12.1875 40.5625 C7.8024083 46.93426471 2.85526906 51.77492194 -4.8125 53.5625 C-13.41960935 54.68704695 -20.77476648 53.8963612 -27.8125 48.5625 C-34.38425131 41.91745778 -37.08999529 35.6397035 -37.1875 26.25 C-37.06569134 17.96701141 -35.12894997 13.10530583 -30.6875 6.3125 C-22.18166779 -1.82351342 -11.17290558 -4.16094415 0 0 Z M-24.125 15.1875 C-26.65028945 20.23807889 -27.52028769 25.2266154 -26.3359375 30.80859375 C-24.69930491 35.56561925 -22.3952141 40.00960228 -17.9609375 42.67578125 C-13.44677531 44.5388991 -8.53202257 44.26594105 -4.0625 42.4375 C-0.36526393 39.35646994 2.638279 36.21016299 4.1875 31.5625 C4.78622675 24.22809731 4.63733056 18.71187953 -0.21875 12.87109375 C-3.53091262 9.5042492 -6.11785053 8.13810269 -10.875 7.9375 C-16.92546931 8.34147671 -20.15593778 10.68207802 -24.125 15.1875 Z " fill="#ffffff" transform="translate(405.8125,369.4375)"/>
<path d="M0 0 C6.48018431 3.38926767 11.56569551 9.11345748 14.1875 15.9375 C16.37874091 24.10485247 16.18726897 33.0058895 12.1875 40.5625 C7.8024083 46.93426471 2.85526906 51.77492194 -4.8125 53.5625 C-13.41960935 54.68704695 -20.77476648 53.8963612 -27.8125 48.5625 C-34.38425131 41.91745778 -37.08999529 35.6397035 -37.1875 26.25 C-37.06569134 17.96701141 -35.12894997 13.10530583 -30.6875 6.3125 C-22.18166779 -1.82351342 -11.17290558 -4.16094415 0 0 Z M-24.125 15.1875 C-26.65028945 20.23807889 -27.52028769 25.2266154 -26.3359375 30.80859375 C-24.69930491 35.56561925 -22.3952141 40.00960228 -17.9609375 42.67578125 C-13.44677531 44.5388991 -8.53202257 44.26594105 -4.0625 42.4375 C-0.36526393 39.35646994 2.638279 36.21016299 4.1875 31.5625 C4.78622675 24.22809731 4.63733056 18.71187953 -0.21875 12.87109375 C-3.53091262 9.5042492 -6.11785053 8.13810269 -10.875 7.9375 C-16.92546931 8.34147671 -20.15593778 10.68207802 -24.125 15.1875 Z " fill="#ffffff" transform="translate(232.8125,369.4375)"/>
<path d="M0 0 C4.29245267 -0.65813339 8.61916088 -0.60001237 12.95605469 -0.61083984 C15.09810115 -0.62482439 17.23414361 -0.69197274 19.375 -0.76171875 C25.69478041 -0.86253358 30.87879405 -0.92853585 35.89453125 3.32421875 C39.54362713 7.11800358 40.96782042 10.69193962 41.01953125 16.0078125 C40.66900436 20.99097849 38.94021577 23.92163619 36 28 C36 31.2237603 36.89698282 33.1929761 38.20703125 36.08984375 C39 38 39 38 40.0625 41.8125 C40.7414531 45.06068786 40.7414531 45.06068786 43 47 C42.44444444 51.55555556 42.44444444 51.55555556 41 53 C34.88941176 53.69176471 34.88941176 53.69176471 31.75 51.25 C29.5402529 47.14618395 28.65344657 43.09309522 27.7109375 38.546875 C27.47632813 37.70640625 27.24171875 36.8659375 27 36 C23.828262 34.414131 20.36486178 34.62133555 16.875 34.4375 C16.12089844 34.39431641 15.36679687 34.35113281 14.58984375 34.30664062 C12.72678112 34.2005168 10.86341476 34.09974999 9 34 C9.02320313 35.03640625 9.04640625 36.0728125 9.0703125 37.140625 C9.08907667 38.51040944 9.10727618 39.8802017 9.125 41.25 C9.14175781 41.93191406 9.15851562 42.61382812 9.17578125 43.31640625 C9.21213482 47.0608235 9.07944349 49.82352727 7 53 C1.50197473 53.36653502 1.50197473 53.36653502 -0.6759491 51.77624512 C-2.37082793 49.5025257 -2.37448087 48.21232241 -2.37231445 45.39257812 C-2.37854324 44.46151245 -2.38477203 43.53044678 -2.39118958 42.57116699 C-2.38197983 41.56799438 -2.37277008 40.56482178 -2.36328125 39.53125 C-2.36377975 38.49939575 -2.36427826 37.4675415 -2.36479187 36.40441895 C-2.36245078 34.22222977 -2.35272021 32.04003792 -2.33618164 29.85791016 C-2.3125924 26.51310135 -2.31562019 23.16908956 -2.32226562 19.82421875 C-2.31668885 17.7057244 -2.30957897 15.58723342 -2.30078125 13.46875 C-2.30169266 12.46557739 -2.30260406 11.46240479 -2.30354309 10.42883301 C-2.29401108 9.49776733 -2.28447906 8.56670166 -2.2746582 7.60742188 C-2.27005081 6.78818237 -2.26544342 5.96894287 -2.26069641 5.12487793 C-2 3 -2 3 0 0 Z M9 9 C9 14.28 9 19.56 9 25 C11.93902349 25.13481759 14.87189559 25.23399416 17.8125 25.3125 C19.06256836 25.3753418 19.06256836 25.3753418 20.33789062 25.43945312 C22.65691341 25.48601985 24.72774877 25.47074413 27 25 C29.47012072 22.20115598 29.93541423 20.63294051 30.3125 16.9375 C30.00773148 14.07267596 29.58715807 12.3807371 28 10 C24.69005287 8.34502644 21.00877 8.89915665 17.375 8.9375 C16.17230469 8.94426758 16.17230469 8.94426758 14.9453125 8.95117188 C12.96350994 8.96296832 10.98174567 8.98090395 9 9 Z " fill="#ffffff" transform="translate(654,369)"/>
<path d="M0 0 C4.29245267 -0.65813339 8.61916088 -0.60001237 12.95605469 -0.61083984 C15.09810115 -0.62482439 17.23414361 -0.69197274 19.375 -0.76171875 C25.69478041 -0.86253358 30.87879405 -0.92853585 35.89453125 3.32421875 C39.54362713 7.11800358 40.96782042 10.69193962 41.01953125 16.0078125 C40.66900436 20.99097849 38.94021577 23.92163619 36 28 C36 31.2237603 36.89698282 33.1929761 38.20703125 36.08984375 C39 38 39 38 40.0625 41.8125 C40.7414531 45.06068786 40.7414531 45.06068786 43 47 C42.44444444 51.55555556 42.44444444 51.55555556 41 53 C34.88941176 53.69176471 34.88941176 53.69176471 31.75 51.25 C29.5402529 47.14618395 28.65344657 43.09309522 27.7109375 38.546875 C27.47632813 37.70640625 27.24171875 36.8659375 27 36 C23.828262 34.414131 20.36486178 34.62133555 16.875 34.4375 C16.12089844 34.39431641 15.36679687 34.35113281 14.58984375 34.30664062 C12.72678112 34.2005168 10.86341476 34.09974999 9 34 C9.02320313 35.03640625 9.04640625 36.0728125 9.0703125 37.140625 C9.08907667 38.51040944 9.10727618 39.8802017 9.125 41.25 C9.14175781 41.93191406 9.15851563 42.61382812 9.17578125 43.31640625 C9.21213482 47.0608235 9.07944349 49.82352727 7 53 C1.50197473 53.36653502 1.50197473 53.36653502 -0.6759491 51.77624512 C-2.37082793 49.5025257 -2.37448087 48.21232241 -2.37231445 45.39257812 C-2.37854324 44.46151245 -2.38477203 43.53044678 -2.39118958 42.57116699 C-2.38197983 41.56799438 -2.37277008 40.56482178 -2.36328125 39.53125 C-2.36377975 38.49939575 -2.36427826 37.4675415 -2.36479187 36.40441895 C-2.36245078 34.22222977 -2.35272021 32.04003792 -2.33618164 29.85791016 C-2.3125924 26.51310135 -2.31562019 23.16908956 -2.32226562 19.82421875 C-2.31668885 17.7057244 -2.30957897 15.58723342 -2.30078125 13.46875 C-2.30169266 12.46557739 -2.30260406 11.46240479 -2.30354309 10.42883301 C-2.29401108 9.49776733 -2.28447906 8.56670166 -2.2746582 7.60742188 C-2.27005081 6.78818237 -2.26544342 5.96894287 -2.26069641 5.12487793 C-2 3 -2 3 0 0 Z M9 9 C9 14.28 9 19.56 9 25 C11.93902349 25.13481759 14.87189559 25.23399416 17.8125 25.3125 C19.06256836 25.3753418 19.06256836 25.3753418 20.33789062 25.43945312 C22.65691341 25.48601985 24.72774877 25.47074413 27 25 C29.47012072 22.20115598 29.93541423 20.63294051 30.3125 16.9375 C30.00773148 14.07267596 29.58715807 12.3807371 28 10 C24.69005287 8.34502644 21.00877 8.89915665 17.375 8.9375 C16.17230469 8.94426758 16.17230469 8.94426758 14.9453125 8.95117188 C12.96350994 8.96296832 10.98174567 8.98090395 9 9 Z " fill="#ffffff" transform="translate(257,369)"/>
<path d="M0 0 C3.23046875 -0.63671875 3.23046875 -0.63671875 7 0 C9.56111681 2.0493545 11.38118329 4.55318163 13.3125 7.1875 C14.14563721 8.2688623 14.14563721 8.2688623 14.99560547 9.37207031 C16.13196173 10.85138534 17.25894956 12.33794393 18.37646484 13.83154297 C19.88279718 15.84345933 21.41250773 17.8337349 22.95703125 19.81640625 C26.35010665 24.1768614 29.68687515 28.57857424 33 33 C33.01981934 32.10692139 33.03963867 31.21384277 33.06005859 30.29370117 C33.13818698 26.97799292 33.22487971 23.66273838 33.31738281 20.34741211 C33.35564866 18.91292932 33.39050581 17.47835135 33.421875 16.04370117 C33.46757862 13.98061122 33.52556193 11.91817505 33.5859375 9.85546875 C33.6173584 8.61434326 33.6487793 7.37321777 33.68115234 6.09448242 C34 3 34 3 36 0 C39.0625 -0.25 39.0625 -0.25 42 0 C43.64087745 1.64087745 43.12739755 3.51831062 43.12939453 5.77929688 C43.13254669 6.797052 43.13569885 7.81480713 43.13894653 8.86340332 C43.1369223 9.97066772 43.13489807 11.07793213 43.1328125 12.21875 C43.13376923 13.34696167 43.13472595 14.47517334 43.13571167 15.63757324 C43.13639368 18.02840226 43.13453797 20.41923311 43.13037109 22.81005859 C43.12502316 26.48409151 43.13031543 30.15800217 43.13671875 33.83203125 C43.13605797 36.14843777 43.13477682 38.46484422 43.1328125 40.78125 C43.13483673 41.8885144 43.13686096 42.99577881 43.13894653 44.13659668 C43.13421829 45.66322937 43.13421829 45.66322937 43.12939453 47.22070312 C43.12859894 48.12147583 43.12780334 49.02224854 43.12698364 49.95031738 C43 52 43 52 42 53 C38.7265625 53.37109375 38.7265625 53.37109375 35 53 C32.5859375 50.97265625 32.5859375 50.97265625 30.375 48.0625 C29.96749512 47.53906006 29.55999023 47.01562012 29.14013672 46.47631836 C28.23906329 45.31216637 27.34845827 44.13985919 26.46679688 42.9609375 C24.86747324 40.82282707 23.24062793 38.70758957 21.609375 36.59375 C18.88389298 33.0556382 16.17892031 29.50278283 13.48876953 25.93774414 C11.69166416 23.598678 9.84824656 21.29877836 8 19 C7.97494385 19.99443115 7.9498877 20.9888623 7.92407227 22.01342773 C7.83015118 25.69048747 7.72989381 29.3673515 7.62768555 33.04418945 C7.58427854 34.637893 7.54260781 36.2316448 7.50268555 37.82543945 C7.44512193 40.11163908 7.38138851 42.39759449 7.31640625 44.68359375 C7.29133751 45.7586039 7.29133751 45.7586039 7.26576233 46.85533142 C7.11387171 51.88612829 7.11387171 51.88612829 6 53 C3.0625 53.1875 3.0625 53.1875 0 53 C-2.47274171 50.52725829 -2.2523362 49.81767974 -2.25878906 46.41430664 C-2.26509338 45.46314468 -2.27139771 44.51198273 -2.27789307 43.53199768 C-2.2738446 42.50179001 -2.26979614 41.47158234 -2.265625 40.41015625 C-2.26849518 38.82695839 -2.26849518 38.82695839 -2.27142334 37.21177673 C-2.27278614 34.97654991 -2.26908313 32.74131519 -2.26074219 30.50610352 C-2.25005478 27.08006016 -2.260629 23.65454247 -2.2734375 20.22851562 C-2.27211571 18.05989467 -2.26955293 15.89127405 -2.265625 13.72265625 C-2.26967346 12.69447281 -2.27372192 11.66628937 -2.27789307 10.60694885 C-2.27158875 9.65263474 -2.26528442 8.69832062 -2.25878906 7.71508789 C-2.25719788 6.87506729 -2.25560669 6.03504669 -2.25396729 5.16957092 C-2 3 -2 3 0 0 Z " fill="#ffffff" transform="translate(7,369)"/>
<path d="M0 0 C3.1328125 -0.38818359 3.1328125 -0.38818359 7.125 -0.3984375 C7.8277002 -0.40130768 8.53040039 -0.40417786 9.25439453 -0.40713501 C10.74056809 -0.40917714 12.22676843 -0.40363678 13.71289062 -0.39111328 C15.99149508 -0.37505992 18.2683259 -0.39095499 20.546875 -0.41015625 C21.98958726 -0.40817384 23.43229841 -0.40433021 24.875 -0.3984375 C26.19242188 -0.39505371 27.50984375 -0.39166992 28.8671875 -0.38818359 C30.41792969 -0.19603271 30.41792969 -0.19603271 32 0 C34 3 34 3 33.75 5.625 C33.5025 6.40875 33.255 7.1925 33 8 C30.49502996 9.25248502 28.79146726 9.11374406 25.9921875 9.09765625 C25.00605469 9.09443359 24.01992187 9.09121094 23.00390625 9.08789062 C21.97136719 9.07951172 20.93882813 9.07113281 19.875 9.0625 C18.31458984 9.05573242 18.31458984 9.05573242 16.72265625 9.04882812 C14.14841313 9.03701967 11.57419947 9.01908385 9 9 C9 12.96 9 16.92 9 21 C10.34835937 20.97679687 11.69671875 20.95359375 13.0859375 20.9296875 C14.84895281 20.91093202 16.61197409 20.89273158 18.375 20.875 C19.26445313 20.85824219 20.15390625 20.84148437 21.0703125 20.82421875 C21.92109375 20.81777344 22.771875 20.81132812 23.6484375 20.8046875 C24.82672119 20.78897705 24.82672119 20.78897705 26.02880859 20.77294922 C28 21 28 21 30 23 C30.3125 26 30.3125 26 30 29 C26.89914429 31.06723714 26.27068319 31.24497423 22.76953125 31.1953125 C21.96708984 31.18886719 21.16464844 31.18242187 20.33789062 31.17578125 C19.50451172 31.15902344 18.67113281 31.14226562 17.8125 31.125 C16.96751953 31.11597656 16.12253906 31.10695313 15.25195312 31.09765625 C13.16784757 31.07410703 11.08388783 31.03823647 9 31 C9 35.29 9 39.58 9 44 C10.55332031 43.96519531 12.10664062 43.93039062 13.70703125 43.89453125 C15.74217671 43.8663956 17.77733383 43.8390952 19.8125 43.8125 C20.83666016 43.78736328 21.86082031 43.76222656 22.91601562 43.73632812 C24.39038086 43.72182617 24.39038086 43.72182617 25.89453125 43.70703125 C26.80050049 43.6913208 27.70646973 43.67561035 28.63989258 43.65942383 C31 44 31 44 32.8347168 45.35424805 C34 47 34 47 33.75 49.625 C33 52 33 52 32 53 C29.64775408 53.12553427 27.32639257 53.18859672 24.97265625 53.203125 C23.91648354 53.21167511 23.91648354 53.21167511 22.838974 53.22039795 C21.34684762 53.22985963 19.85470024 53.23638656 18.36254883 53.24023438 C16.0753145 53.24994559 13.78897651 53.28095825 11.50195312 53.3125 C10.05469286 53.31902925 8.60742614 53.32428003 7.16015625 53.328125 C6.13040428 53.3466452 6.13040428 53.3466452 5.07984924 53.36553955 C3.14868164 53.35644531 3.14868164 53.35644531 0 53 C-2.11927289 49.82109067 -2.25171823 49.03307011 -2.25878906 45.39257812 C-2.26509338 44.46151245 -2.27139771 43.53044678 -2.27789307 42.57116699 C-2.2738446 41.56799438 -2.26979614 40.56482178 -2.265625 39.53125 C-2.26753845 38.49939575 -2.2694519 37.4675415 -2.27142334 36.40441895 C-2.27278467 34.22224687 -2.26909187 32.04006668 -2.26074219 29.85791016 C-2.25004211 26.51316173 -2.26063941 23.16895043 -2.2734375 19.82421875 C-2.2721159 17.70572798 -2.26955349 15.58723754 -2.265625 13.46875 C-2.27169769 11.96399109 -2.27169769 11.96399109 -2.27789307 10.42883301 C-2.27158875 9.49776733 -2.26528442 8.56670166 -2.25878906 7.60742188 C-2.25719788 6.78818237 -2.25560669 5.96894287 -2.25396729 5.12487793 C-2 3 -2 3 0 0 Z " fill="#ffffff" transform="translate(1126,369)"/>
<path d="M0 0 C3.1328125 -0.38818359 3.1328125 -0.38818359 7.125 -0.3984375 C7.8277002 -0.40130768 8.53040039 -0.40417786 9.25439453 -0.40713501 C10.74056809 -0.40917714 12.22676843 -0.40363678 13.71289062 -0.39111328 C15.99149508 -0.37505992 18.2683259 -0.39095499 20.546875 -0.41015625 C21.98958726 -0.40817384 23.43229841 -0.40433021 24.875 -0.3984375 C26.19242188 -0.39505371 27.50984375 -0.39166992 28.8671875 -0.38818359 C30.41792969 -0.19603271 30.41792969 -0.19603271 32 0 C34 3 34 3 33.75 5.625 C33.5025 6.40875 33.255 7.1925 33 8 C30.49502996 9.25248502 28.79146726 9.11374406 25.9921875 9.09765625 C25.00605469 9.09443359 24.01992188 9.09121094 23.00390625 9.08789062 C21.97136719 9.07951172 20.93882812 9.07113281 19.875 9.0625 C18.31458984 9.05573242 18.31458984 9.05573242 16.72265625 9.04882812 C14.14841313 9.03701967 11.57419947 9.01908385 9 9 C9 12.96 9 16.92 9 21 C10.34835937 20.97679687 11.69671875 20.95359375 13.0859375 20.9296875 C14.84895281 20.91093202 16.61197409 20.89273158 18.375 20.875 C19.26445313 20.85824219 20.15390625 20.84148437 21.0703125 20.82421875 C21.92109375 20.81777344 22.771875 20.81132812 23.6484375 20.8046875 C24.82672119 20.78897705 24.82672119 20.78897705 26.02880859 20.77294922 C28 21 28 21 30 23 C30.3125 26 30.3125 26 30 29 C26.89914429 31.06723714 26.27068319 31.24497423 22.76953125 31.1953125 C21.96708984 31.18886719 21.16464844 31.18242187 20.33789062 31.17578125 C19.50451172 31.15902344 18.67113281 31.14226562 17.8125 31.125 C16.96751953 31.11597656 16.12253906 31.10695313 15.25195312 31.09765625 C13.16784757 31.07410703 11.08388783 31.03823647 9 31 C9 35.29 9 39.58 9 44 C10.55332031 43.96519531 12.10664062 43.93039062 13.70703125 43.89453125 C15.74217671 43.8663956 17.77733383 43.8390952 19.8125 43.8125 C20.83666016 43.78736328 21.86082031 43.76222656 22.91601562 43.73632812 C24.39038086 43.72182617 24.39038086 43.72182617 25.89453125 43.70703125 C26.80050049 43.6913208 27.70646973 43.67561035 28.63989258 43.65942383 C31 44 31 44 32.8347168 45.35424805 C34 47 34 47 33.75 49.625 C33 52 33 52 32 53 C29.64775408 53.12553427 27.32639257 53.18859672 24.97265625 53.203125 C23.91648354 53.21167511 23.91648354 53.21167511 22.838974 53.22039795 C21.34684762 53.22985963 19.85470024 53.23638656 18.36254883 53.24023438 C16.0753145 53.24994559 13.78897651 53.28095825 11.50195312 53.3125 C10.05469286 53.31902925 8.60742614 53.32428003 7.16015625 53.328125 C6.13040428 53.3466452 6.13040428 53.3466452 5.07984924 53.36553955 C3.14868164 53.35644531 3.14868164 53.35644531 0 53 C-2.11927289 49.82109067 -2.25171823 49.03307011 -2.25878906 45.39257812 C-2.26509338 44.46151245 -2.27139771 43.53044678 -2.27789307 42.57116699 C-2.2738446 41.56799438 -2.26979614 40.56482178 -2.265625 39.53125 C-2.26753845 38.49939575 -2.2694519 37.4675415 -2.27142334 36.40441895 C-2.27278467 34.22224687 -2.26909187 32.04006668 -2.26074219 29.85791016 C-2.25004211 26.51316173 -2.26063941 23.16895043 -2.2734375 19.82421875 C-2.2721159 17.70572798 -2.26955349 15.58723754 -2.265625 13.46875 C-2.27169769 11.96399109 -2.27169769 11.96399109 -2.27789307 10.42883301 C-2.27158875 9.49776733 -2.26528442 8.56670166 -2.25878906 7.60742188 C-2.25719788 6.78818237 -2.25560669 5.96894287 -2.25396729 5.12487793 C-2 3 -2 3 0 0 Z " fill="#ffffff" transform="translate(868,369)"/>
<path d="M0 0 C3.1328125 -0.38818359 3.1328125 -0.38818359 7.125 -0.3984375 C7.8277002 -0.40130768 8.53040039 -0.40417786 9.25439453 -0.40713501 C10.74056809 -0.40917714 12.22676843 -0.40363678 13.71289062 -0.39111328 C15.99149508 -0.37505992 18.2683259 -0.39095499 20.546875 -0.41015625 C21.98958726 -0.40817384 23.43229841 -0.40433021 24.875 -0.3984375 C26.19242188 -0.39505371 27.50984375 -0.39166992 28.8671875 -0.38818359 C30.41792969 -0.19603271 30.41792969 -0.19603271 32 0 C34 3 34 3 33.75 5.625 C33.5025 6.40875 33.255 7.1925 33 8 C30.49502996 9.25248502 28.79146726 9.11374406 25.9921875 9.09765625 C25.00605469 9.09443359 24.01992187 9.09121094 23.00390625 9.08789062 C21.97136719 9.07951172 20.93882813 9.07113281 19.875 9.0625 C18.31458984 9.05573242 18.31458984 9.05573242 16.72265625 9.04882812 C14.14841313 9.03701967 11.57419947 9.01908385 9 9 C9 12.96 9 16.92 9 21 C10.34835938 20.97679687 11.69671875 20.95359375 13.0859375 20.9296875 C14.84895281 20.91093202 16.61197409 20.89273158 18.375 20.875 C19.26445313 20.85824219 20.15390625 20.84148437 21.0703125 20.82421875 C21.92109375 20.81777344 22.771875 20.81132812 23.6484375 20.8046875 C24.82672119 20.78897705 24.82672119 20.78897705 26.02880859 20.77294922 C28 21 28 21 30 23 C30.3125 26 30.3125 26 30 29 C26.89914429 31.06723714 26.27068319 31.24497423 22.76953125 31.1953125 C21.96708984 31.18886719 21.16464844 31.18242187 20.33789062 31.17578125 C19.50451172 31.15902344 18.67113281 31.14226562 17.8125 31.125 C16.96751953 31.11597656 16.12253906 31.10695313 15.25195312 31.09765625 C13.16784757 31.07410703 11.08388783 31.03823647 9 31 C9 35.29 9 39.58 9 44 C10.55332031 43.96519531 12.10664062 43.93039062 13.70703125 43.89453125 C15.74217671 43.8663956 17.77733383 43.8390952 19.8125 43.8125 C20.83666016 43.78736328 21.86082031 43.76222656 22.91601562 43.73632812 C24.39038086 43.72182617 24.39038086 43.72182617 25.89453125 43.70703125 C26.80050049 43.6913208 27.70646973 43.67561035 28.63989258 43.65942383 C31 44 31 44 32.8347168 45.35424805 C34 47 34 47 33.75 49.625 C33 52 33 52 32 53 C29.64775408 53.12553427 27.32639257 53.18859672 24.97265625 53.203125 C23.91648354 53.21167511 23.91648354 53.21167511 22.838974 53.22039795 C21.34684762 53.22985963 19.85470024 53.23638656 18.36254883 53.24023438 C16.0753145 53.24994559 13.78897651 53.28095825 11.50195312 53.3125 C10.05469286 53.31902925 8.60742614 53.32428003 7.16015625 53.328125 C6.13040428 53.3466452 6.13040428 53.3466452 5.07984924 53.36553955 C3.14868164 53.35644531 3.14868164 53.35644531 0 53 C-2.11927289 49.82109067 -2.25171823 49.03307011 -2.25878906 45.39257812 C-2.26509338 44.46151245 -2.27139771 43.53044678 -2.27789307 42.57116699 C-2.2738446 41.56799438 -2.26979614 40.56482178 -2.265625 39.53125 C-2.26753845 38.49939575 -2.2694519 37.4675415 -2.27142334 36.40441895 C-2.27278467 34.22224687 -2.26909187 32.04006668 -2.26074219 29.85791016 C-2.25004211 26.51316173 -2.26063941 23.16895043 -2.2734375 19.82421875 C-2.2721159 17.70572798 -2.26955349 15.58723754 -2.265625 13.46875 C-2.27169769 11.96399109 -2.27169769 11.96399109 -2.27789307 10.42883301 C-2.27158875 9.49776733 -2.26528442 8.56670166 -2.25878906 7.60742188 C-2.25719788 6.78818237 -2.25560669 5.96894287 -2.25396729 5.12487793 C-2 3 -2 3 0 0 Z " fill="#ffffff" transform="translate(63,369)"/>
<path d="M0 0 C5.95159842 2.96722342 5.95159842 2.96722342 7.8984375 4.9140625 C8.0859375 7.8515625 8.0859375 7.8515625 7.8984375 10.9140625 C5.8984375 12.9140625 5.8984375 12.9140625 3.5859375 13.2265625 C0.8984375 12.9140625 0.8984375 12.9140625 -1.3515625 11.4765625 C-6.0085905 8.83052386 -10.89143007 8.45361824 -16.1015625 9.5390625 C-18.30987244 10.78859038 -18.30987244 10.78859038 -19.1015625 13.3515625 C-19.36592566 15.91487146 -19.36592566 15.91487146 -17.8527832 17.49853516 C-15.89327884 19.08242004 -14.52350435 19.56035141 -12.08203125 20.125 C-10.91897461 20.41503906 -10.91897461 20.41503906 -9.73242188 20.7109375 C-8.11635656 21.09331586 -6.49917258 21.47099984 -4.88085938 21.84375 C0.59506678 23.22065782 3.87885988 24.90696804 7.8984375 28.9140625 C10.44778374 33.7910727 10.43898411 38.70339013 8.8984375 43.9140625 C6.40098297 48.26365613 2.88167447 51.77342552 -1.9296875 53.4765625 C-10.72800307 55.24888506 -19.28176041 54.42780927 -27.1015625 49.9140625 C-29.70555297 47.76823516 -30.05781615 47.34277673 -30.4140625 43.8515625 C-30.1015625 40.9140625 -30.1015625 40.9140625 -28.1015625 38.9140625 C-24.56023685 38.32384156 -23.32256163 38.75835857 -20.3515625 40.8515625 C-16.26133049 43.44728666 -12.9179344 44.13767977 -8.1015625 43.9140625 C-4.69955199 42.75980894 -2.79601985 42.11007238 -0.9765625 38.9765625 C-0.91941524 36.76944599 -0.91941524 36.76944599 -2.62109375 34.90234375 C-5.82010138 32.33809984 -8.99059613 31.79121795 -12.9140625 31.0390625 C-24.5194534 28.43443611 -24.5194534 28.43443611 -28.1015625 22.9140625 C-30.28891541 18.1628451 -30.46481911 14.11231404 -29.0390625 9.1015625 C-27.1399976 4.29952174 -24.49701116 2.05554586 -19.85546875 -0.15625 C-13.58648455 -2.27258793 -6.22667283 -2.18011971 0 0 Z " fill="#ffffff" transform="translate(568.1015625,369.0859375)"/>
<path d="M0 0 C3.125 1.125 3.125 1.125 4.168396 2.6725769 C4.61822845 3.64651901 4.61822845 3.64651901 5.07714844 4.64013672 C5.41564819 5.36392517 5.75414795 6.08771362 6.10290527 6.83343506 C6.60884216 7.9677597 6.60884216 7.9677597 7.125 9.125 C7.60338318 10.18657318 7.60338318 10.18657318 8.09143066 11.26959229 C9.08422208 13.50828308 10.05373178 15.75567874 11.015625 18.0078125 C11.36510193 18.82571259 11.71457886 19.64361267 12.074646 20.48629761 C12.8055598 22.20162525 13.53489045 23.91762828 14.26269531 25.63427734 C15.00662071 27.38371033 15.75535474 29.131106 16.50878906 30.87646484 C17.60493798 33.41589237 18.68679566 35.96098693 19.765625 38.5078125 C20.27177338 39.6705217 20.27177338 39.6705217 20.78814697 40.85671997 C22.53836661 45.0384755 23.83455543 48.50765954 23.125 53.125 C20.125 55.125 20.125 55.125 17.61328125 55.05859375 C15.125 54.125 15.125 54.125 13.54296875 51.91015625 C13.13691406 51.01167969 12.73085938 50.11320312 12.3125 49.1875 C11.68408203 47.84365234 11.68408203 47.84365234 11.04296875 46.47265625 C10.125 44.125 10.125 44.125 10.125 42.125 C2.865 42.125 -4.395 42.125 -11.875 42.125 C-12.865 45.095 -13.855 48.065 -14.875 51.125 C-16.5625 53.6875 -16.5625 53.6875 -17.875 55.125 C-19.855 54.795 -21.835 54.465 -23.875 54.125 C-25.86297945 48.81585407 -23.4663953 44.76349096 -21.359375 39.87890625 C-20.98774231 38.99017319 -20.61610962 38.10144012 -20.23321533 37.18577576 C-19.04266631 34.34770482 -17.83389562 31.51779741 -16.625 28.6875 C-15.82566738 26.78629271 -15.02747727 24.88460463 -14.23046875 22.98242188 C-4.64471129 0.20194397 -4.64471129 0.20194397 0 0 Z M-1.875 18.125 C-3.855 23.075 -5.835 28.025 -7.875 33.125 C-3.255 33.125 1.365 33.125 6.125 33.125 C4.145 28.175 2.165 23.225 0.125 18.125 C-0.535 18.125 -1.195 18.125 -1.875 18.125 Z " fill="#ffffff" transform="translate(793.875,367.875)"/>
<path d="M0 0 C4.16321267 -0.75613032 8.40127444 -0.60206989 12.625 -0.625 C13.78902344 -0.67011719 14.95304688 -0.71523438 16.15234375 -0.76171875 C22.13703483 -0.80916251 26.09752842 -0.60619496 30.7421875 3.39453125 C34.97038267 7.71234026 36.07121203 10.9499838 36.3125 16.9375 C36.19422082 21.37296922 35.61038899 24.29493175 33 28 C32.62875 28.55945313 32.2575 29.11890625 31.875 29.6953125 C29.55030591 32.41166701 27.53487341 33.81020769 23.91503906 34.2578125 C18.59789229 34.52006388 13.31115609 34.30349463 8 34 C8.02320313 35.20398438 8.04640625 36.40796875 8.0703125 37.6484375 C8.08906863 39.22395215 8.10726899 40.79947348 8.125 42.375 C8.15013672 43.56609375 8.15013672 43.56609375 8.17578125 44.78125 C8.19335473 46.85492015 8.10335168 48.92883241 8 51 C6 53 6 53 3 53.3125 C2.01 53.209375 1.02 53.10625 0 53 C-2.11927289 49.82109067 -2.25171823 49.03307011 -2.25878906 45.39257812 C-2.26509338 44.46151245 -2.27139771 43.53044678 -2.27789307 42.57116699 C-2.2738446 41.56799438 -2.26979614 40.56482178 -2.265625 39.53125 C-2.26753845 38.49939575 -2.2694519 37.4675415 -2.27142334 36.40441895 C-2.27278467 34.22224687 -2.26909187 32.04006668 -2.26074219 29.85791016 C-2.25004211 26.51316173 -2.26063941 23.16895043 -2.2734375 19.82421875 C-2.2721159 17.70572798 -2.26955349 15.58723754 -2.265625 13.46875 C-2.27169769 11.96399109 -2.27169769 11.96399109 -2.27789307 10.42883301 C-2.27158875 9.49776733 -2.26528442 8.56670166 -2.25878906 7.60742188 C-2.25719788 6.78818237 -2.25560669 5.96894287 -2.25396729 5.12487793 C-2 3 -2 3 0 0 Z M8 9 C8 14.28 8 19.56 8 25 C10.2275 25.103125 12.455 25.20625 14.75 25.3125 C16.00296875 25.37050781 17.2559375 25.42851562 18.546875 25.48828125 C22.13613807 25.3247085 22.13613807 25.3247085 24.421875 22.66796875 C26.35822881 19.39438051 26.62418759 17.74512554 26 14 C24.50874098 11.20807753 24.50874098 11.20807753 22 9 C18.50024865 8.39614308 18.50024865 8.39614308 14.75 8.6875 C12.5225 8.790625 10.295 8.89375 8 9 Z " fill="#ffffff" transform="translate(608,369)"/>
<path d="M0 0 C2 3 2 3 1.6875 5.625 C1 8 1 8 0 9 C-3.66344611 9.13568319 -6.50615721 9.16461426 -10 8 C-16.29516779 7.4665112 -20.78456341 8.28670529 -26 12 C-29.88819356 17.01702395 -30.41625651 21.7561524 -30 28 C-28.69553056 33.49520593 -26.92947731 36.91907668 -22 40 C-16.33100867 41.88966378 -9.83270908 41.44663788 -4 40.3125 C-1 40 -1 40 1 41.125 C2 43 2 43 2 45.5 C0.6816934 48.7957665 -0.8455934 49.49790162 -4 51 C-11.17617106 53.39205702 -19.99504774 52.81446821 -27.0078125 50.02734375 C-33.1884677 46.8400647 -37.23366377 42.37230759 -40.11328125 36.0390625 C-42.420014 28.13316787 -42.39807823 19.00804843 -39 11.4375 C-34.84011772 4.49657283 -29.20280502 -0.39449895 -21.3515625 -2.56640625 C-14.03528998 -3.91541995 -6.69040622 -3.50381188 0 0 Z " fill="#ffffff" transform="translate(143,371)"/>
<path d="M0 0 C11.68186516 8.52533346 16.13839576 28.47038792 18.31689453 41.96264648 C18.96842209 46.67444322 19.15265742 51.3100326 19.125 56.0625 C19.13080078 57.06506836 19.13080078 57.06506836 19.13671875 58.08789062 C19.1281418 62.50073211 18.7111317 66.65983904 18 71 C17.34 71 16.68 71 16 71 C15.70867188 69.97261719 15.41734375 68.94523437 15.1171875 67.88671875 C12.62614892 59.35898766 9.91949735 51.48938403 5 44 C4.52304687 43.27296875 4.04609375 42.5459375 3.5546875 41.796875 C-1.4654986 35.18738376 -8.60156189 32.28363411 -16 29 C-16 28.01 -16 27.02 -16 26 C-15.0925 25.4225 -14.185 24.845 -13.25 24.25 C-8.77532431 21.1521476 -6.53507187 17.82374061 -5.53515625 12.546875 C-5.28434729 10.36174487 -5.09962688 8.19677263 -5 6 C-8.06382739 6.32432407 -8.98970965 6.98901487 -11.140625 9.28515625 C-11.83671875 10.20167969 -12.5328125 11.11820313 -13.25 12.0625 C-13.95640625 12.98160156 -14.6628125 13.90070312 -15.390625 14.84765625 C-16.18726563 15.91306641 -16.18726563 15.91306641 -17 17 C-17.33 16.01 -17.66 15.02 -18 14 C-14.34345314 7.19791438 -8.74497624 -2.0987943 0 0 Z " fill="#5A3716" transform="translate(886,0)"/>
<path d="M0 0 C3.47638961 1.18705987 3.85065558 2.65838691 5.5625 5.875 C6.64375298 8.21630938 7.68805224 10.55499278 8.69921875 12.92578125 C8.98352249 13.58458786 9.26782623 14.24339447 9.56074524 14.92216492 C10.46049214 17.00919552 11.35531464 19.0982953 12.25 21.1875 C12.86230509 22.61016601 13.47493203 24.03269355 14.08789062 25.45507812 C15.58315494 28.92679464 17.07400907 32.40037435 18.5625 35.875 C20.87998818 30.84146438 23.02659783 25.76263254 25.03515625 20.59765625 C25.45990234 19.50775391 25.88464844 18.41785156 26.32226562 17.29492188 C27.20049074 15.0315501 28.0727643 12.76586116 28.93945312 10.49804688 C29.36291016 9.41716797 29.78636719 8.33628906 30.22265625 7.22265625 C30.60043213 6.24304932 30.97820801 5.26344238 31.36743164 4.25415039 C32.5625 1.875 32.5625 1.875 35.5625 -0.125 C38.125 -0.0625 38.125 -0.0625 40.5625 0.875 C41.86499023 3.0144043 41.86499023 3.0144043 42.5625 5.875 C41.70727539 9.03442383 41.70727539 9.03442383 40.16015625 12.58203125 C39.8873735 13.2206459 39.61459076 13.85926056 39.33354187 14.51722717 C38.44708734 16.58152894 37.53660852 18.63419894 36.625 20.6875 C36.01509513 22.09391148 35.40669661 23.50097716 34.79980469 24.90869141 C33.33061297 28.30692874 31.84285182 31.69663249 30.34918213 35.08416748 C29.27454679 37.53050742 28.22005301 39.98529662 27.16796875 42.44140625 C22.77110139 52.66639861 22.77110139 52.66639861 21.5625 53.875 C18.8125 54.4375 18.8125 54.4375 15.5625 53.875 C11.46787262 49.05735423 8.99676178 42.79372286 6.5390625 37.02734375 C6.18862885 36.21181534 5.83819519 35.39628693 5.47714233 34.55604553 C4.74587595 32.84582443 4.01834644 31.134001 3.29443359 29.4206543 C2.18585551 26.80862525 1.05240903 24.20830387 -0.08203125 21.60742188 C-0.79321753 19.9355547 -1.50290562 18.26304925 -2.2109375 16.58984375 C-2.55039398 15.81986557 -2.88985046 15.04988739 -3.23959351 14.25657654 C-5.23788834 9.43313476 -5.86757949 6.09567707 -4.4375 0.875 C-2.4375 -0.125 -2.4375 -0.125 0 0 Z " fill="#ffffff" transform="translate(727.4375,368.125)"/>
<path d="M0 0 C3.04101562 -0.37231445 3.04101562 -0.37231445 6.90625 -0.36328125 C7.58675415 -0.36377975 8.2672583 -0.36427826 8.96838379 -0.36479187 C10.4075004 -0.36245082 11.84662105 -0.35272029 13.28564453 -0.33618164 C15.49158237 -0.31259002 17.69631186 -0.31561947 19.90234375 -0.32226562 C30.7209175 -0.2790825 30.7209175 -0.2790825 33 2 C33.25 4.5 33.25 4.5 33 7 C31 9 31 9 28.75341797 9.22705078 C27.84221191 9.21657715 26.93100586 9.20610352 25.9921875 9.1953125 C25.00605469 9.18886719 24.01992188 9.18242187 23.00390625 9.17578125 C21.45509766 9.15064453 21.45509766 9.15064453 19.875 9.125 C18.83472656 9.11597656 17.79445313 9.10695313 16.72265625 9.09765625 C14.14834003 9.07403867 11.57414162 9.03816684 9 9 C9 13.29 9 17.58 9 22 C15.27 22 21.54 22 28 22 C30 27 30 27 29.19921875 29.296875 C25.68788769 32.0161296 22.11387994 31.42298666 17.8125 31.25 C16.96751953 31.23195313 16.12253906 31.21390625 15.25195312 31.1953125 C13.16748427 31.14820586 11.08359856 31.07646233 9 31 C9.02320313 32.25296875 9.04640625 33.5059375 9.0703125 34.796875 C9.08907427 36.4479107 9.10727403 38.09895285 9.125 39.75 C9.15013672 40.9875 9.15013672 40.9875 9.17578125 42.25 C9.18222656 43.04921875 9.18867188 43.8484375 9.1953125 44.671875 C9.20578613 45.4050293 9.21625977 46.13818359 9.22705078 46.89355469 C8.96777544 49.29896076 8.19225925 50.91251494 7 53 C3.625 53.1875 3.625 53.1875 0 53 C-2.11927289 49.82109067 -2.25171823 49.03307011 -2.25878906 45.39257812 C-2.26509338 44.46151245 -2.27139771 43.53044678 -2.27789307 42.57116699 C-2.2738446 41.56799438 -2.26979614 40.56482178 -2.265625 39.53125 C-2.26753845 38.49939575 -2.2694519 37.4675415 -2.27142334 36.40441895 C-2.27278467 34.22224687 -2.26909187 32.04006668 -2.26074219 29.85791016 C-2.25004211 26.51316173 -2.26063941 23.16895043 -2.2734375 19.82421875 C-2.2721159 17.70572798 -2.26955349 15.58723754 -2.265625 13.46875 C-2.27169769 11.96399109 -2.27169769 11.96399109 -2.27789307 10.42883301 C-2.27158875 9.49776733 -2.26528442 8.56670166 -2.25878906 7.60742188 C-2.25719788 6.78818237 -2.25560669 5.96894287 -2.25396729 5.12487793 C-2 3 -2 3 0 0 Z " fill="#ffffff" transform="translate(331,369)"/>
<path d="M0 0 C1.28753174 0.00136711 1.28753174 0.00136711 2.60107422 0.00276184 C3.48134277 -0.00152328 4.36161133 -0.00580841 5.26855469 -0.01022339 C7.1313389 -0.01597132 8.99414556 -0.01646355 10.85693359 -0.01213074 C13.71474263 -0.00896944 16.57151819 -0.03242828 19.42919922 -0.05778503 C21.23648957 -0.06005776 23.04378272 -0.06076165 24.85107422 -0.05973816 C25.70942871 -0.06894791 26.5677832 -0.07815765 27.45214844 -0.08764648 C29.85888672 -0.06877136 29.85888672 -0.06877136 33.72607422 0.30354309 C35.72607422 3.30354309 35.72607422 3.30354309 35.47607422 5.92854309 C35.22857422 6.71229309 34.98107422 7.49604309 34.72607422 8.30354309 C31.72293674 9.80511183 28.93539899 9.39635513 25.60107422 9.36604309 C24.31974609 9.35701965 23.03841797 9.34799622 21.71826172 9.33869934 C20.73083984 9.32709778 19.74341797 9.31549622 18.72607422 9.30354309 C18.73654785 10.56537415 18.74702148 11.8272052 18.7578125 13.12727356 C18.79394321 17.79749223 18.81694938 22.46769848 18.8359375 27.13801575 C18.84601092 29.16147436 18.85967017 31.18491837 18.87695312 33.20832825 C18.90114269 36.11249898 18.91254371 39.0164777 18.92138672 41.92073059 C18.93170929 42.82910675 18.94203186 43.73748291 18.95266724 44.67338562 C18.9528183 45.51410614 18.95296936 46.35482666 18.953125 47.22102356 C18.95756622 47.96270782 18.96200745 48.70439209 18.96658325 49.46855164 C18.72607422 51.30354309 18.72607422 51.30354309 16.72607422 53.30354309 C13.22607422 53.61604309 13.22607422 53.61604309 9.72607422 53.30354309 C7.68093295 50.23583118 7.47780148 49.64786261 7.49902344 46.19929504 C7.49925003 44.96835869 7.49925003 44.96835869 7.4994812 43.71255493 C7.50980377 42.83121384 7.52012634 41.94987274 7.53076172 41.04182434 C7.53359161 40.13603134 7.53642151 39.23023834 7.53933716 38.29699707 C7.55053458 35.40321151 7.57563833 32.50973515 7.60107422 29.61604309 C7.61110459 27.65445902 7.62023034 25.6928701 7.62841797 23.73127747 C7.65047249 18.92191349 7.68499933 14.11278072 7.72607422 9.30354309 C6.73865234 9.32674622 5.75123047 9.34994934 4.73388672 9.37385559 C3.45255859 9.39190247 2.17123047 9.40994934 0.85107422 9.42854309 C-1.06318359 9.46334778 -1.06318359 9.46334778 -3.01611328 9.49885559 C-6.27392578 9.30354309 -6.27392578 9.30354309 -8.27392578 7.30354309 C-8.52392578 4.80354309 -8.52392578 4.80354309 -8.27392578 2.30354309 C-5.61664958 -0.35373311 -3.61590455 0.04339691 0 0 Z " fill="#ffffff" transform="translate(1082.27392578125,368.6964569091797)"/>
<path d="M0 0 C1.28753174 0.00136711 1.28753174 0.00136711 2.60107422 0.00276184 C3.48134277 -0.00152328 4.36161133 -0.00580841 5.26855469 -0.01022339 C7.1313389 -0.01597132 8.99414556 -0.01646355 10.85693359 -0.01213074 C13.71474263 -0.00896944 16.57151819 -0.03242828 19.42919922 -0.05778503 C21.23648957 -0.06005776 23.04378272 -0.06076165 24.85107422 -0.05973816 C25.70942871 -0.06894791 26.5677832 -0.07815765 27.45214844 -0.08764648 C29.85888672 -0.06877136 29.85888672 -0.06877136 33.72607422 0.30354309 C35.72607422 3.30354309 35.72607422 3.30354309 35.47607422 5.92854309 C35.22857422 6.71229309 34.98107422 7.49604309 34.72607422 8.30354309 C31.72293674 9.80511183 28.93539899 9.39635513 25.60107422 9.36604309 C24.31974609 9.35701965 23.03841797 9.34799622 21.71826172 9.33869934 C20.73083984 9.32709778 19.74341797 9.31549622 18.72607422 9.30354309 C18.73654785 10.56537415 18.74702148 11.8272052 18.7578125 13.12727356 C18.79394321 17.79749223 18.81694938 22.46769848 18.8359375 27.13801575 C18.84601092 29.16147436 18.85967017 31.18491837 18.87695312 33.20832825 C18.90114269 36.11249898 18.91254371 39.0164777 18.92138672 41.92073059 C18.93170929 42.82910675 18.94203186 43.73748291 18.95266724 44.67338562 C18.9528183 45.51410614 18.95296936 46.35482666 18.953125 47.22102356 C18.95756622 47.96270782 18.96200745 48.70439209 18.96658325 49.46855164 C18.72607422 51.30354309 18.72607422 51.30354309 16.72607422 53.30354309 C13.22607422 53.61604309 13.22607422 53.61604309 9.72607422 53.30354309 C7.68093295 50.23583118 7.47780148 49.64786261 7.49902344 46.19929504 C7.49925003 44.96835869 7.49925003 44.96835869 7.4994812 43.71255493 C7.50980377 42.83121384 7.52012634 41.94987274 7.53076172 41.04182434 C7.53359161 40.13603134 7.53642151 39.23023834 7.53933716 38.29699707 C7.55053458 35.40321151 7.57563833 32.50973515 7.60107422 29.61604309 C7.61110459 27.65445902 7.62023034 25.6928701 7.62841797 23.73127747 C7.65047249 18.92191349 7.68499933 14.11278072 7.72607422 9.30354309 C6.73865234 9.32674622 5.75123047 9.34994934 4.73388672 9.37385559 C3.45255859 9.39190247 2.17123047 9.40994934 0.85107422 9.42854309 C-1.06318359 9.46334778 -1.06318359 9.46334778 -3.01611328 9.49885559 C-6.27392578 9.30354309 -6.27392578 9.30354309 -8.27392578 7.30354309 C-8.52392578 4.80354309 -8.52392578 4.80354309 -8.27392578 2.30354309 C-5.61664958 -0.35373311 -3.61590455 0.04339691 0 0 Z " fill="#ffffff" transform="translate(823.27392578125,368.6964569091797)"/>
<path d="M0 0 C1.28753174 0.00136711 1.28753174 0.00136711 2.60107422 0.00276184 C3.48134277 -0.00152328 4.36161133 -0.00580841 5.26855469 -0.01022339 C7.1313389 -0.01597132 8.99414556 -0.01646355 10.85693359 -0.01213074 C13.71474263 -0.00896944 16.57151819 -0.03242828 19.42919922 -0.05778503 C21.23648957 -0.06005776 23.04378272 -0.06076165 24.85107422 -0.05973816 C25.70942871 -0.06894791 26.5677832 -0.07815765 27.45214844 -0.08764648 C29.85888672 -0.06877136 29.85888672 -0.06877136 33.72607422 0.30354309 C35.72607422 3.30354309 35.72607422 3.30354309 35.47607422 5.92854309 C35.22857422 6.71229309 34.98107422 7.49604309 34.72607422 8.30354309 C31.72293674 9.80511183 28.93539899 9.39635513 25.60107422 9.36604309 C24.31974609 9.35701965 23.03841797 9.34799622 21.71826172 9.33869934 C20.73083984 9.32709778 19.74341797 9.31549622 18.72607422 9.30354309 C18.73654785 10.56537415 18.74702148 11.8272052 18.7578125 13.12727356 C18.79394321 17.79749223 18.81694938 22.46769848 18.8359375 27.13801575 C18.84601092 29.16147436 18.85967017 31.18491837 18.87695312 33.20832825 C18.90114269 36.11249898 18.91254371 39.0164777 18.92138672 41.92073059 C18.93170929 42.82910675 18.94203186 43.73748291 18.95266724 44.67338562 C18.9528183 45.51410614 18.95296936 46.35482666 18.953125 47.22102356 C18.95756622 47.96270782 18.96200745 48.70439209 18.96658325 49.46855164 C18.72607422 51.30354309 18.72607422 51.30354309 16.72607422 53.30354309 C13.22607422 53.61604309 13.22607422 53.61604309 9.72607422 53.30354309 C7.68093295 50.23583118 7.47780148 49.64786261 7.49902344 46.19929504 C7.49925003 44.96835869 7.49925003 44.96835869 7.4994812 43.71255493 C7.50980377 42.83121384 7.52012634 41.94987274 7.53076172 41.04182434 C7.53359161 40.13603134 7.53642151 39.23023834 7.53933716 38.29699707 C7.55053458 35.40321151 7.57563833 32.50973515 7.60107422 29.61604309 C7.61110459 27.65445902 7.62023034 25.6928701 7.62841797 23.73127747 C7.65047249 18.92191349 7.68499933 14.11278072 7.72607422 9.30354309 C6.73865234 9.32674622 5.75123047 9.34994934 4.73388672 9.37385559 C3.45255859 9.39190247 2.17123047 9.40994934 0.85107422 9.42854309 C-1.06318359 9.46334778 -1.06318359 9.46334778 -3.01611328 9.49885559 C-6.27392578 9.30354309 -6.27392578 9.30354309 -8.27392578 7.30354309 C-8.52392578 4.80354309 -8.52392578 4.80354309 -8.27392578 2.30354309 C-5.61664958 -0.35373311 -3.61590455 0.04339691 0 0 Z " fill="#ffffff" transform="translate(157.27392578125,368.6964569091797)"/>
<path d="M0 0 C3.625 -0.1875 3.625 -0.1875 7 0 C8.60907648 2.84356685 9.24769226 4.8646229 9.22705078 8.12597656 C9.22682419 9.32676849 9.22682419 9.32676849 9.22659302 10.55181885 C9.21627045 11.40612488 9.20594788 12.26043091 9.1953125 13.140625 C9.1924826 14.02280701 9.18965271 14.90498901 9.18673706 15.81390381 C9.17555961 18.62607499 9.15045951 21.4379254 9.125 24.25 C9.11496705 26.15884956 9.10584175 28.06770412 9.09765625 29.9765625 C9.07562824 34.65116489 9.04111511 39.32552809 9 44 C9.65597168 43.98952637 10.31194336 43.97905273 10.98779297 43.96826172 C13.95015658 43.92677497 16.91245916 43.90069738 19.875 43.875 C20.90753906 43.85824219 21.94007813 43.84148437 23.00390625 43.82421875 C24.48310547 43.81455078 24.48310547 43.81455078 25.9921875 43.8046875 C27.35899658 43.78897705 27.35899658 43.78897705 28.75341797 43.77294922 C31 44 31 44 33 46 C33.25 48.5 33.25 48.5 33 51 C29.55155772 54.44844228 24.56110767 53.30366983 19.90234375 53.32226562 C18.81928955 53.31900269 18.81928955 53.31900269 17.71435547 53.31567383 C15.50828766 53.31251188 13.30355831 53.33597576 11.09765625 53.36132812 C9.70052253 53.36360088 8.30338519 53.36430472 6.90625 53.36328125 C5.63072266 53.36626221 4.35519531 53.36924316 3.04101562 53.37231445 C2.03748047 53.24945068 1.03394531 53.12658691 0 53 C-2.11927289 49.82109067 -2.25171823 49.03307011 -2.25878906 45.39257812 C-2.26509338 44.46151245 -2.27139771 43.53044678 -2.27789307 42.57116699 C-2.2738446 41.56799438 -2.26979614 40.56482178 -2.265625 39.53125 C-2.26753845 38.49939575 -2.2694519 37.4675415 -2.27142334 36.40441895 C-2.27278467 34.22224687 -2.26909187 32.04006668 -2.26074219 29.85791016 C-2.25004211 26.51316173 -2.26063941 23.16895043 -2.2734375 19.82421875 C-2.2721159 17.70572798 -2.26955349 15.58723754 -2.265625 13.46875 C-2.27169769 11.96399109 -2.27169769 11.96399109 -2.27789307 10.42883301 C-2.27158875 9.49776733 -2.26528442 8.56670166 -2.25878906 7.60742188 C-2.25719788 6.78818237 -2.25560669 5.96894287 -2.25396729 5.12487793 C-2 3 -2 3 0 0 Z " fill="#ffffff" transform="translate(933,369)"/>
<path d="M0 0 C3.625 -0.1875 3.625 -0.1875 7 0 C8.70244813 2.97186459 9.2518105 5.10729084 9.25878906 8.52148438 C9.26509338 9.40920532 9.27139771 10.29692627 9.27789307 11.21154785 C9.2738446 12.16267456 9.26979614 13.11380127 9.265625 14.09375 C9.26753845 15.07742554 9.2694519 16.06110107 9.27142334 17.07458496 C9.27278313 19.15242774 9.26910107 21.23027906 9.26074219 23.30810547 C9.25003988 26.48814989 9.26064457 29.66762939 9.2734375 32.84765625 C9.27211587 34.86718875 9.2695534 36.88672089 9.265625 38.90625 C9.26967346 39.85737671 9.27372192 40.80850342 9.27789307 41.78845215 C9.27158875 42.6761731 9.26528442 43.56389404 9.25878906 44.47851562 C9.25640228 45.64622498 9.25640228 45.64622498 9.25396729 46.83752441 C8.96950368 49.2596695 8.2050331 50.89644386 7 53 C3.625 53.1875 3.625 53.1875 0 53 C-2.11927289 49.82109067 -2.25171823 49.03307011 -2.25878906 45.39257812 C-2.26509338 44.46151245 -2.27139771 43.53044678 -2.27789307 42.57116699 C-2.2738446 41.56799438 -2.26979614 40.56482178 -2.265625 39.53125 C-2.26753845 38.49939575 -2.2694519 37.4675415 -2.27142334 36.40441895 C-2.27278467 34.22224687 -2.26909187 32.04006668 -2.26074219 29.85791016 C-2.25004211 26.51316173 -2.26063941 23.16895043 -2.2734375 19.82421875 C-2.2721159 17.70572798 -2.26955349 15.58723754 -2.265625 13.46875 C-2.27169769 11.96399109 -2.27169769 11.96399109 -2.27789307 10.42883301 C-2.27158875 9.49776733 -2.26528442 8.56670166 -2.25878906 7.60742188 C-2.25719788 6.78818237 -2.25560669 5.96894287 -2.25396729 5.12487793 C-2 3 -2 3 0 0 Z " fill="#ffffff" transform="translate(1058,369)"/>
<path d="M0 0 C3.625 -0.1875 3.625 -0.1875 7 0 C8.70244813 2.97186459 9.2518105 5.10729084 9.25878906 8.52148438 C9.26509338 9.40920532 9.27139771 10.29692627 9.27789307 11.21154785 C9.2738446 12.16267456 9.26979614 13.11380127 9.265625 14.09375 C9.26753845 15.07742554 9.2694519 16.06110107 9.27142334 17.07458496 C9.27278313 19.15242774 9.26910107 21.23027906 9.26074219 23.30810547 C9.25003988 26.48814989 9.26064457 29.66762939 9.2734375 32.84765625 C9.27211587 34.86718875 9.2695534 36.88672089 9.265625 38.90625 C9.26967346 39.85737671 9.27372192 40.80850342 9.27789307 41.78845215 C9.27158875 42.6761731 9.26528442 43.56389404 9.25878906 44.47851562 C9.25640228 45.64622498 9.25640228 45.64622498 9.25396729 46.83752441 C8.96950368 49.2596695 8.2050331 50.89644386 7 53 C3.625 53.1875 3.625 53.1875 0 53 C-2.11927289 49.82109067 -2.25171823 49.03307011 -2.25878906 45.39257812 C-2.26509338 44.46151245 -2.27139771 43.53044678 -2.27789307 42.57116699 C-2.2738446 41.56799438 -2.26979614 40.56482178 -2.265625 39.53125 C-2.26753845 38.49939575 -2.2694519 37.4675415 -2.27142334 36.40441895 C-2.27278467 34.22224687 -2.26909187 32.04006668 -2.26074219 29.85791016 C-2.25004211 26.51316173 -2.26063941 23.16895043 -2.2734375 19.82421875 C-2.2721159 17.70572798 -2.26955349 15.58723754 -2.265625 13.46875 C-2.27169769 11.96399109 -2.27169769 11.96399109 -2.27789307 10.42883301 C-2.27158875 9.49776733 -2.26528442 8.56670166 -2.25878906 7.60742188 C-2.25719788 6.78818237 -2.25560669 5.96894287 -2.25396729 5.12487793 C-2 3 -2 3 0 0 Z " fill="#ffffff" transform="translate(975,369)"/>
<path d="M0 0 C3.625 -0.1875 3.625 -0.1875 7 0 C8.70244813 2.97186459 9.2518105 5.10729084 9.25878906 8.52148438 C9.26509338 9.40920532 9.27139771 10.29692627 9.27789307 11.21154785 C9.2738446 12.16267456 9.26979614 13.11380127 9.265625 14.09375 C9.26753845 15.07742554 9.2694519 16.06110107 9.27142334 17.07458496 C9.27278313 19.15242774 9.26910107 21.23027906 9.26074219 23.30810547 C9.25003988 26.48814989 9.26064457 29.66762939 9.2734375 32.84765625 C9.27211587 34.86718875 9.2695534 36.88672089 9.265625 38.90625 C9.26967346 39.85737671 9.27372192 40.80850342 9.27789307 41.78845215 C9.27158875 42.6761731 9.26528442 43.56389404 9.25878906 44.47851562 C9.25640228 45.64622498 9.25640228 45.64622498 9.25396729 46.83752441 C8.96950368 49.2596695 8.2050331 50.89644386 7 53 C3.625 53.1875 3.625 53.1875 0 53 C-2.11927289 49.82109067 -2.25171823 49.03307011 -2.25878906 45.39257812 C-2.26509338 44.46151245 -2.27139771 43.53044678 -2.27789307 42.57116699 C-2.2738446 41.56799438 -2.26979614 40.56482178 -2.265625 39.53125 C-2.26753845 38.49939575 -2.2694519 37.4675415 -2.27142334 36.40441895 C-2.27278467 34.22224687 -2.26909187 32.04006668 -2.26074219 29.85791016 C-2.25004211 26.51316173 -2.26063941 23.16895043 -2.2734375 19.82421875 C-2.2721159 17.70572798 -2.26955349 15.58723754 -2.265625 13.46875 C-2.27169769 11.96399109 -2.27169769 11.96399109 -2.27789307 10.42883301 C-2.27158875 9.49776733 -2.26528442 8.56670166 -2.25878906 7.60742188 C-2.25719788 6.78818237 -2.25560669 5.96894287 -2.25396729 5.12487793 C-2 3 -2 3 0 0 Z " fill="#ffffff" transform="translate(706,369)"/>
<path d="M0 0 C-2.74974211 1.83316141 -5.52064557 3.24252343 -8.49609375 4.6640625 C-15.64845306 8.1024444 -22.07785924 11.63677614 -28 17 C-28.68320312 17.59167969 -29.36640625 18.18335938 -30.0703125 18.79296875 C-37.00014771 25.1826457 -41.69027933 33.21156697 -45 42 C-46.18334564 38.44996307 -45.79896199 37.93695287 -44.25 34.6875 C-43.87875 33.89859375 -43.5075 33.1096875 -43.125 32.296875 C-40.36363636 26.65909091 -40.36363636 26.65909091 -39 24 C-43.10223585 22.98459888 -43.10223585 22.98459888 -47 24 C-47.99 23.34 -48.98 22.68 -50 22 C-46.11931836 16.60585252 -42.26108232 14.14452172 -36.25 11.4375 C-35.42105225 11.05327881 -34.59210449 10.66905762 -33.73803711 10.27319336 C-26.810537 7.15723316 -19.77723045 4.90015395 -12.44140625 2.97265625 C-1.60768227 -0.08931568 -1.60768227 -0.08931568 0 0 Z " fill="#DE2627" transform="translate(854,153)"/>
<path d="M0 0 C0 0.66 0 1.32 0 2 C-0.54825439 2.26103516 -1.09650879 2.52207031 -1.66137695 2.79101562 C-16.49443638 9.90017683 -28.58795225 16.94602456 -40 29 C-40.99665741 30.00333145 -41.99530157 31.00472061 -43 32 C-41.32037081 22.62725442 -30.57907166 15.93337587 -23.328125 10.82128906 C-7.66368094 0 -7.66368094 0 0 0 Z " fill="#F7CC0C" transform="translate(827,159)"/>
<path d="M0 0 C0.33 0 0.66 0 1 0 C1.48080596 2.99974538 1.95968682 5.99977769 2.4375 9 C2.57220703 9.83917969 2.70691406 10.67835938 2.84570312 11.54296875 C3.66308805 16.68651294 4.3834858 21.82846341 5 27 C1.29394681 23.50164156 -1.52199492 19.99149936 -4.3125 15.6875 C-5.00988281 14.61886719 -5.70726562 13.55023438 -6.42578125 12.44921875 C-6.94527344 11.64097656 -7.46476563 10.83273438 -8 10 C-7.67 9.34 -7.34 8.68 -7 8 C-6.01 8.99 -5.02 9.98 -4 11 C-1.9656541 9.58480285 -1.09589607 8.45017877 -0.578125 6.01953125 C-0.33726048 4.01823046 -0.16467259 2.0090056 0 0 Z " fill="#F6D80E" transform="translate(796,229)"/>
<path d="M0 0 C2.33048379 1.80504315 2.95329137 2.71217382 3.43359375 5.671875 C3.44851259 17.42791762 3.44851259 17.42791762 -1 22 C-4.87587351 25.19553401 -8.87341618 28.13864235 -13 31 C-13 30.01 -13 29.02 -13 28 C-12.34 28 -11.68 28 -11 28 C-11 27.34 -11 26.68 -11 26 C-10.01 26 -9.02 26 -8 26 C-8 25.01 -8 24.02 -8 23 C-7.34 22.34 -6.68 21.68 -6 21 C-0.57428084 14.56012773 -0.13786528 8.22178425 0 0 Z " fill="#EA7523" transform="translate(985,134)"/>
<path d="M0 0 C10.56 0.66 21.12 1.32 32 2 C30.02 2.99 30.02 2.99 28 4 C25.94729537 5.84188612 25.94729537 5.84188612 25 8 C16.5537319 5.95838673 8.19304439 3.92608728 0 1 C0 0.67 0 0.34 0 0 Z " fill="#D93028" transform="translate(899,232)"/>
<path d="M0 0 C0.66 0.33 1.32 0.66 2 1 C1.2589502 1.69561035 1.2589502 1.69561035 0.50292969 2.40527344 C-1.74867189 4.51951781 -3.99934389 6.63474921 -6.25 8.75 C-7.02730469 9.47960937 -7.80460938 10.20921875 -8.60546875 10.9609375 C-9.73662109 12.02441406 -9.73662109 12.02441406 -10.890625 13.109375 C-11.58188477 13.75874023 -12.27314453 14.40810547 -12.98535156 15.07714844 C-16.61198646 18.53853676 -19.54836501 21.58705701 -22 26 C-22.75 24.375 -22.75 24.375 -23 22 C-18.28731672 12.57463344 -8.88305725 5.27833837 0 0 Z " fill="#E66025" transform="translate(807,170)"/>
<path d="M0 0 C-0.33 0.66 -0.66 1.32 -1 2 C-3.49410928 2.654291 -5.90492539 3.17825978 -8.4375 3.625 C-9.5193457 3.82283081 -9.5193457 3.82283081 -10.62304688 4.0246582 C-16.11210303 4.97322499 -21.42825634 5.36162759 -27 5 C-19.46671805 -0.02218797 -8.86056772 -0.55123348 0 0 Z " fill="#F8B417" transform="translate(946,168)"/>
<path d="M0 0 C0.99 0.33 1.98 0.66 3 1 C3 5.95 3 10.9 3 16 C2.01 15.67 1.02 15.34 0 15 C-1.69262664 10.619084 -2.30153263 5.67375574 -2 1 C-1.34 0.67 -0.68 0.34 0 0 Z " fill="#E68A24" transform="translate(801,242)"/>
<path d="M0 0 C0 0.66 0 1.32 0 2 C-6.04057576 4.27057103 -11.56318772 5.48914188 -18 6 C-16.40454111 2.80908222 -13.45128039 1.55048566 -10.1875 0.3125 C-6.78422046 -0.17368279 -3.43577805 -0.05726297 0 0 Z " fill="#F6AA19" transform="translate(965,163)"/>
<path d="M0 0 C-3.23866621 2.15911081 -6.59869892 3.92917168 -10.0625 5.6875 C-10.69994141 6.02072266 -11.33738281 6.35394531 -11.99414062 6.69726562 C-13.63242239 7.52762762 -15.31419223 8.27094559 -17 9 C-17.66 8.67 -18.32 8.34 -19 8 C-19 7.01 -19 6.02 -19 5 C-18.32453125 4.80664062 -17.6490625 4.61328125 -16.953125 4.4140625 C-15.61507812 4.02347656 -15.61507812 4.02347656 -14.25 3.625 C-13.36828125 3.36976563 -12.4865625 3.11453125 -11.578125 2.8515625 C-9.02093754 2.07832475 -9.02093754 2.07832475 -6.84375 0.90625 C-4.47955933 -0.25580982 -2.59834347 -0.14435241 0 0 Z " fill="#D23627" transform="translate(854,153)"/>
<path d="M0 0 C-1.53319408 3.44968669 -3.64129144 6.06948331 -6 9 C-7.0268343 10.6502694 -8.03567924 12.31243867 -9 14 C-9.75 12.375 -9.75 12.375 -10 10 C-4.375 0 -4.375 0 0 0 Z " fill="#EB7924" transform="translate(794,182)"/>
<path d="M0 0 C0.66 0.33 1.32 0.66 2 1 C1.154375 1.86625 0.30875 2.7325 -0.5625 3.625 C-5.24120673 9.01835406 -7.99324947 15.58619191 -11 22 C-12.18334564 18.44996307 -11.79896199 17.93695287 -10.25 14.6875 C-9.87230469 13.8934375 -9.49460937 13.099375 -9.10546875 12.28125 C-8.55826172 11.15203125 -8.55826172 11.15203125 -8 10 C-7.525625 8.906875 -7.05125 7.81375 -6.5625 6.6875 C-4.79310201 3.64413546 -2.86153639 2.01080935 0 0 Z " fill="#D95329" transform="translate(820,173)"/>
<path d="M0 0 C1 3 1 3 -0.21484375 5.69921875 C-0.78332031 6.68535156 -1.35179687 7.67148438 -1.9375 8.6875 C-2.50339844 9.68136719 -3.06929687 10.67523438 -3.65234375 11.69921875 C-4.31943359 12.83810547 -4.31943359 12.83810547 -5 14 C-6.43775857 11.12448286 -5.53571789 8.97168854 -4.74609375 5.9765625 C-3.73871045 3.30778789 -2.20542137 1.76433709 0 0 Z " fill="#DA4D27" transform="translate(994,227)"/>
<path d="M0 0 C-0.65226563 0.35191406 -1.30453125 0.70382813 -1.9765625 1.06640625 C-7.88079161 4.40168612 -11.89568112 7.59958042 -16 13 C-16.33 12.34 -16.66 11.68 -17 11 C-6.48881789 -2.1629393 -6.48881789 -2.1629393 0 0 Z " fill="#EAA422" transform="translate(841,228)"/>
<path d="M0 0 C0.66 0.33 1.32 0.66 2 1 C-2.88471613 4.86435321 -7.75430616 8.63737574 -13 12 C-13 11.01 -13 10.02 -13 9 C-10.86175784 7.29939257 -8.77910139 5.79794342 -6.5 4.3125 C-5.87996094 3.89677734 -5.25992188 3.48105469 -4.62109375 3.05273438 C-3.08684057 2.02596494 -1.54418071 1.01177775 0 0 Z " fill="#E49124" transform="translate(829,94)"/>
<path d="M0 0 C5.31954226 3.1138784 9.35122113 7.01261586 13 12 C13 12.66 13 13.32 13 14 C12.34 14 11.68 14 11 14 C9.4140625 12.13671875 9.4140625 12.13671875 7.625 9.6875 C5.79021585 7.17780626 4.26750592 5.20039478 1.7734375 3.33203125 C1.18820312 2.89246094 0.60296875 2.45289062 0 2 C0 1.34 0 0.68 0 0 Z " fill="#DE7B29" transform="translate(916,84)"/>
<path d="M0 0 C3.20982372 3.01612746 5.00453275 6.08033219 7 10 C6.67 10.66 6.34 11.32 6 12 C4.125 11.0625 4.125 11.0625 2 9 C1.04648439 6.04514944 0.48803282 3.0630481 0 0 Z " fill="#DB5826" transform="translate(984,127)"/>
<path d="M0 0 C0 0.66 0 1.32 0 2 C-7.42857143 4.42857143 -7.42857143 4.42857143 -11 3 C-7.16674383 0.29417212 -4.67461851 -0.32613618 0 0 Z " fill="#F8B815" transform="translate(958,165)"/>
<path d="M0 0 C0.66 0.33 1.32 0.66 2 1 C-4.28571429 6.57142857 -4.28571429 6.57142857 -8 7 C-6.88424427 3.65273281 -6.48655378 3.37920252 -3.5625 1.75 C-2.386875 1.1725 -1.21125 0.595 0 0 Z " fill="#E75B24" transform="translate(984,237)"/>
<path d="M0 0 C0.66 0.66 1.32 1.32 2 2 C-0.97 4.31 -3.94 6.62 -7 9 C-7 8.01 -7 7.02 -7 6 C-6.34 6 -5.68 6 -5 6 C-5 5.34 -5 4.68 -5 4 C-4.01 4 -3.02 4 -2 4 C-2 3.01 -2 2.02 -2 1 C-1.34 0.67 -0.68 0.34 0 0 Z " fill="#EE7D22" transform="translate(979,156)"/>
<path d="M0 0 C-4.92984325 2.03993514 -8.57960425 3.40652968 -14 3 C-13 1 -13 1 -11.07421875 0.33203125 C-10.28660156 0.16058594 -9.49898437 -0.01085937 -8.6875 -0.1875 C-7.90761719 -0.36667969 -7.12773438 -0.54585938 -6.32421875 -0.73046875 C-3.90795241 -1.01067443 -2.29757048 -0.74132137 0 0 Z " fill="#E08626" transform="translate(870,81)"/>
<path d="M0 0 C0.66 0.33 1.32 0.66 2 1 C-0.64 3.64 -3.28 6.28 -6 9 C-6.33 8.01 -6.66 7.02 -7 6 C-4.69 4.02 -2.38 2.04 0 0 Z " fill="#EEB31F" transform="translate(821,210)"/>
<path d="M0 0 C0.66 0.66 1.32 1.32 2 2 C0.02 4.31 -1.96 6.62 -4 9 C-4.33 8.01 -4.66 7.02 -5 6 C-3.59554165 3.7363436 -1.8032087 1.9791315 0 0 Z " fill="#FABE15" transform="translate(789,182)"/>
<path d="M0 0 C0 0.66 0 1.32 0 2 C-0.61875 2.28875 -1.2375 2.5775 -1.875 2.875 C-4.13325765 3.93720042 -4.13325765 3.93720042 -6 6 C-6.99 5.01 -7.98 4.02 -9 3 C-2.25 0 -2.25 0 0 0 Z " fill="#E88A24" transform="translate(850,85)"/>
<path d="M0 0 C-3.625 3 -3.625 3 -7 3 C-7.99 2.34 -8.98 1.68 -10 1 C-8.71073008 0.63720544 -7.41846728 0.28503302 -6.125 -0.0625 C-5.40570312 -0.25972656 -4.68640625 -0.45695313 -3.9453125 -0.66015625 C-2 -1 -2 -1 0 0 Z " fill="#F1A81C" transform="translate(952,166)"/>
</svg>
